<svg xmlns="http://www.w3.org/2000/svg" width="369" height="758" viewBox="0 0 369 758" fill="none"><rect x="5" width="358" height="758" rx="47" fill="black"></rect><path d="M12.0002 48C12.0002 25.3563 30.3566 7 53.0002 7H314.085C336.728 7 355.085 25.3563 355.085 48V707.831C355.085 730.475 336.728 748.831 314.085 748.831H53.0003C30.3566 748.831 12.0002 730.475 12.0002 707.831V48Z" fill="white"></path><path d="M0 92.0605C0 90.4037 1.34315 89.0605 3 89.0605H7.08434V113.35H3C1.34315 113.35 0 112.007 0 110.35V92.0605Z" fill="black"></path><path d="M0 139.627C0 137.97 1.34315 136.627 3 136.627H7.08434V187.229H3C1.34315 187.229 0 185.886 0 184.229V139.627Z" fill="black"></path><path d="M0 202.373C0 200.716 1.34315 199.373 3 199.373H7.08434V248.963H3C1.34315 248.963 0 247.62 0 245.963V202.373Z" fill="black"></path><path d="M368.349 155.819C368.349 154.162 367.006 152.819 365.349 152.819H361.265V232.771H365.349C367.006 232.771 368.349 231.428 368.349 229.771V155.819Z" fill="black"></path><path d="M134.553 140L130.929 134.84C130.481 134.872 130.129 134.888 129.873 134.888H125.721V140H123.321V123.2H129.873C132.049 123.2 133.761 123.72 135.009 124.76C136.257 125.8 136.881 127.232 136.881 129.056C136.881 130.352 136.561 131.456 135.921 132.368C135.281 133.28 134.369 133.944 133.185 134.36L137.169 140H134.553ZM129.801 132.848C131.321 132.848 132.481 132.52 133.281 131.864C134.081 131.208 134.481 130.272 134.481 129.056C134.481 127.84 134.081 126.912 133.281 126.272C132.481 125.616 131.321 125.288 129.801 125.288H125.721V132.848H129.801ZM151.918 133.712C151.918 133.888 151.902 134.12 151.87 134.408H141.55C141.694 135.528 142.182 136.432 143.014 137.12C143.862 137.792 144.91 138.128 146.158 138.128C147.678 138.128 148.902 137.616 149.83 136.592L151.102 138.08C150.526 138.752 149.806 139.264 148.942 139.616C148.094 139.968 147.142 140.144 146.086 140.144C144.742 140.144 143.55 139.872 142.51 139.328C141.47 138.768 140.662 137.992 140.086 137C139.526 136.008 139.246 134.888 139.246 133.64C139.246 132.408 139.518 131.296 140.062 130.304C140.622 129.312 141.382 128.544 142.342 128C143.318 127.44 144.414 127.16 145.63 127.16C146.846 127.16 147.926 127.44 148.87 128C149.83 128.544 150.574 129.312 151.102 130.304C151.646 131.296 151.918 132.432 151.918 133.712ZM145.63 129.104C144.526 129.104 143.598 129.44 142.846 130.112C142.11 130.784 141.678 131.664 141.55 132.752H149.71C149.582 131.68 149.142 130.808 148.39 130.136C147.654 129.448 146.734 129.104 145.63 129.104ZM159.398 127.16C161.158 127.16 162.502 127.592 163.43 128.456C164.374 129.32 164.846 130.608 164.846 132.32V140H162.662V138.32C162.278 138.912 161.726 139.368 161.006 139.688C160.302 139.992 159.462 140.144 158.486 140.144C157.062 140.144 155.918 139.8 155.054 139.112C154.206 138.424 153.782 137.52 153.782 136.4C153.782 135.28 154.19 134.384 155.006 133.712C155.822 133.024 157.118 132.68 158.894 132.68H162.542V132.224C162.542 131.232 162.254 130.472 161.678 129.944C161.102 129.416 160.254 129.152 159.134 129.152C158.382 129.152 157.646 129.28 156.926 129.536C156.206 129.776 155.598 130.104 155.102 130.52L154.142 128.792C154.798 128.264 155.582 127.864 156.494 127.592C157.406 127.304 158.374 127.16 159.398 127.16ZM158.87 138.368C159.75 138.368 160.51 138.176 161.15 137.792C161.79 137.392 162.254 136.832 162.542 136.112V134.336H158.99C157.038 134.336 156.062 134.992 156.062 136.304C156.062 136.944 156.31 137.448 156.806 137.816C157.302 138.184 157.99 138.368 158.87 138.368ZM169.11 122.192H171.414V140H169.11V122.192ZM174.997 132.416H181.453V134.408H174.997V132.416ZM192.387 139.256C192.051 139.544 191.635 139.768 191.139 139.928C190.643 140.072 190.131 140.144 189.603 140.144C188.323 140.144 187.331 139.8 186.627 139.112C185.923 138.424 185.571 137.44 185.571 136.16V129.176H183.411V127.28H185.571V124.496H187.875V127.28H191.523V129.176H187.875V136.064C187.875 136.752 188.043 137.28 188.379 137.648C188.731 138.016 189.227 138.2 189.867 138.2C190.571 138.2 191.171 138 191.667 137.6L192.387 139.256ZM195.172 127.28H197.476V140H195.172V127.28ZM196.324 124.832C195.876 124.832 195.5 124.688 195.196 124.4C194.908 124.112 194.764 123.76 194.764 123.344C194.764 122.928 194.908 122.576 195.196 122.288C195.5 121.984 195.876 121.832 196.324 121.832C196.772 121.832 197.14 121.976 197.428 122.264C197.732 122.536 197.884 122.88 197.884 123.296C197.884 123.728 197.732 124.096 197.428 124.4C197.14 124.688 196.772 124.832 196.324 124.832ZM217.787 127.16C219.387 127.16 220.651 127.624 221.579 128.552C222.523 129.48 222.995 130.856 222.995 132.68V140H220.691V132.944C220.691 131.712 220.403 130.784 219.827 130.16C219.267 129.536 218.459 129.224 217.403 129.224C216.235 129.224 215.307 129.592 214.619 130.328C213.931 131.048 213.587 132.088 213.587 133.448V140H211.283V132.944C211.283 131.712 210.995 130.784 210.419 130.16C209.859 129.536 209.051 129.224 207.995 129.224C206.827 129.224 205.899 129.592 205.211 130.328C204.523 131.048 204.179 132.088 204.179 133.448V140H201.875V127.28H204.083V129.176C204.547 128.52 205.155 128.024 205.907 127.688C206.659 127.336 207.515 127.16 208.475 127.16C209.467 127.16 210.347 127.36 211.115 127.76C211.883 128.16 212.475 128.744 212.891 129.512C213.371 128.776 214.035 128.2 214.883 127.784C215.747 127.368 216.715 127.16 217.787 127.16ZM238.801 133.712C238.801 133.888 238.785 134.12 238.753 134.408H228.433C228.577 135.528 229.065 136.432 229.897 137.12C230.745 137.792 231.793 138.128 233.041 138.128C234.561 138.128 235.785 137.616 236.713 136.592L237.985 138.08C237.409 138.752 236.689 139.264 235.825 139.616C234.977 139.968 234.025 140.144 232.969 140.144C231.625 140.144 230.433 139.872 229.393 139.328C228.353 138.768 227.545 137.992 226.969 137C226.409 136.008 226.129 134.888 226.129 133.64C226.129 132.408 226.401 131.296 226.945 130.304C227.505 129.312 228.265 128.544 229.225 128C230.201 127.44 231.297 127.16 232.513 127.16C233.729 127.16 234.809 127.44 235.753 128C236.713 128.544 237.457 129.312 237.985 130.304C238.529 131.296 238.801 132.432 238.801 133.712ZM232.513 129.104C231.409 129.104 230.481 129.44 229.729 130.112C228.993 130.784 228.561 131.664 228.433 132.752H236.593C236.465 131.68 236.025 130.808 235.273 130.136C234.537 129.448 233.617 129.104 232.513 129.104ZM80.4727 173.256C80.1367 173.544 79.7207 173.768 79.2247 173.928C78.7287 174.072 78.2167 174.144 77.6887 174.144C76.4087 174.144 75.4167 173.8 74.7127 173.112C74.0087 172.424 73.6567 171.44 73.6567 170.16V163.176H71.4967V161.28H73.6567V158.496H75.9607V161.28H79.6087V163.176H75.9607V170.064C75.9607 170.752 76.1287 171.28 76.4647 171.648C76.8167 172.016 77.3127 172.2 77.9527 172.2C78.6567 172.2 79.2567 172 79.7527 171.6L80.4727 173.256ZM94.3323 167.712C94.3323 167.888 94.3163 168.12 94.2843 168.408H83.9643C84.1083 169.528 84.5963 170.432 85.4283 171.12C86.2763 171.792 87.3243 172.128 88.5723 172.128C90.0923 172.128 91.3163 171.616 92.2443 170.592L93.5163 172.08C92.9403 172.752 92.2203 173.264 91.3563 173.616C90.5083 173.968 89.5563 174.144 88.5003 174.144C87.1563 174.144 85.9643 173.872 84.9243 173.328C83.8843 172.768 83.0763 171.992 82.5003 171C81.9403 170.008 81.6603 168.888 81.6603 167.64C81.6603 166.408 81.9323 165.296 82.4763 164.304C83.0363 163.312 83.7963 162.544 84.7563 162C85.7323 161.44 86.8283 161.16 88.0443 161.16C89.2603 161.16 90.3403 161.44 91.2843 162C92.2443 162.544 92.9883 163.312 93.5163 164.304C94.0603 165.296 94.3323 166.432 94.3323 167.712ZM88.0443 163.104C86.9403 163.104 86.0123 163.44 85.2603 164.112C84.5243 164.784 84.0923 165.664 83.9643 166.752H92.1243C91.9963 165.68 91.5563 164.808 90.8043 164.136C90.0683 163.448 89.1483 163.104 88.0443 163.104ZM101.812 161.16C103.572 161.16 104.916 161.592 105.844 162.456C106.788 163.32 107.26 164.608 107.26 166.32V174H105.076V172.32C104.692 172.912 104.14 173.368 103.42 173.688C102.716 173.992 101.876 174.144 100.9 174.144C99.4761 174.144 98.3321 173.8 97.4681 173.112C96.6201 172.424 96.1961 171.52 96.1961 170.4C96.1961 169.28 96.6041 168.384 97.4201 167.712C98.2361 167.024 99.5321 166.68 101.308 166.68H104.956V166.224C104.956 165.232 104.668 164.472 104.092 163.944C103.516 163.416 102.668 163.152 101.548 163.152C100.796 163.152 100.06 163.28 99.3401 163.536C98.6201 163.776 98.0121 164.104 97.5161 164.52L96.5561 162.792C97.2121 162.264 97.9961 161.864 98.9081 161.592C99.8201 161.304 100.788 161.16 101.812 161.16ZM101.284 172.368C102.164 172.368 102.924 172.176 103.564 171.792C104.204 171.392 104.668 170.832 104.956 170.112V168.336H101.404C99.4521 168.336 98.4761 168.992 98.4761 170.304C98.4761 170.944 98.7241 171.448 99.2201 171.816C99.7161 172.184 100.404 172.368 101.284 172.368ZM127.436 161.16C129.036 161.16 130.3 161.624 131.228 162.552C132.172 163.48 132.644 164.856 132.644 166.68V174H130.34V166.944C130.34 165.712 130.052 164.784 129.476 164.16C128.916 163.536 128.108 163.224 127.052 163.224C125.884 163.224 124.956 163.592 124.268 164.328C123.58 165.048 123.236 166.088 123.236 167.448V174H120.932V166.944C120.932 165.712 120.644 164.784 120.068 164.16C119.508 163.536 118.7 163.224 117.644 163.224C116.476 163.224 115.548 163.592 114.86 164.328C114.172 165.048 113.828 166.088 113.828 167.448V174H111.524V161.28H113.732V163.176C114.196 162.52 114.804 162.024 115.556 161.688C116.308 161.336 117.164 161.16 118.124 161.16C119.116 161.16 119.996 161.36 120.764 161.76C121.532 162.16 122.124 162.744 122.54 163.512C123.02 162.776 123.684 162.2 124.532 161.784C125.396 161.368 126.364 161.16 127.436 161.16ZM148.873 174.144C147.577 174.144 146.417 173.864 145.393 173.304C144.385 172.744 143.593 171.976 143.017 171C142.441 170.008 142.153 168.888 142.153 167.64C142.153 166.392 142.441 165.28 143.017 164.304C143.593 163.312 144.385 162.544 145.393 162C146.417 161.44 147.577 161.16 148.873 161.16C150.025 161.16 151.049 161.392 151.945 161.856C152.857 162.32 153.561 162.992 154.057 163.872L152.305 165C151.905 164.392 151.409 163.936 150.817 163.632C150.225 163.328 149.569 163.176 148.849 163.176C148.017 163.176 147.265 163.36 146.593 163.728C145.937 164.096 145.417 164.624 145.033 165.312C144.665 165.984 144.481 166.76 144.481 167.64C144.481 168.536 144.665 169.328 145.033 170.016C145.417 170.688 145.937 171.208 146.593 171.576C147.265 171.944 148.017 172.128 148.849 172.128C149.569 172.128 150.225 171.976 150.817 171.672C151.409 171.368 151.905 170.912 152.305 170.304L154.057 171.408C153.561 172.288 152.857 172.968 151.945 173.448C151.049 173.912 150.025 174.144 148.873 174.144ZM163.667 161.16C165.283 161.16 166.563 161.632 167.507 162.576C168.467 163.504 168.947 164.872 168.947 166.68V174H166.643V166.944C166.643 165.712 166.347 164.784 165.755 164.16C165.163 163.536 164.315 163.224 163.211 163.224C161.963 163.224 160.979 163.592 160.259 164.328C159.539 165.048 159.179 166.088 159.179 167.448V174H156.875V156.192H159.179V163.08C159.659 162.472 160.283 162 161.051 161.664C161.835 161.328 162.707 161.16 163.667 161.16ZM177.843 161.16C179.603 161.16 180.947 161.592 181.875 162.456C182.819 163.32 183.291 164.608 183.291 166.32V174H181.107V172.32C180.723 172.912 180.171 173.368 179.451 173.688C178.747 173.992 177.907 174.144 176.931 174.144C175.507 174.144 174.363 173.8 173.499 173.112C172.651 172.424 172.227 171.52 172.227 170.4C172.227 169.28 172.635 168.384 173.451 167.712C174.267 167.024 175.563 166.68 177.339 166.68H180.987V166.224C180.987 165.232 180.699 164.472 180.123 163.944C179.547 163.416 178.699 163.152 177.579 163.152C176.827 163.152 176.091 163.28 175.371 163.536C174.651 163.776 174.043 164.104 173.547 164.52L172.587 162.792C173.243 162.264 174.027 161.864 174.939 161.592C175.851 161.304 176.819 161.16 177.843 161.16ZM177.315 172.368C178.195 172.368 178.955 172.176 179.595 171.792C180.235 171.392 180.699 170.832 180.987 170.112V168.336H177.435C175.483 168.336 174.507 168.992 174.507 170.304C174.507 170.944 174.755 171.448 175.251 171.816C175.747 172.184 176.435 172.368 177.315 172.368ZM194.707 173.256C194.371 173.544 193.955 173.768 193.459 173.928C192.963 174.072 192.451 174.144 191.923 174.144C190.643 174.144 189.651 173.8 188.947 173.112C188.243 172.424 187.891 171.44 187.891 170.16V163.176H185.731V161.28H187.891V158.496H190.195V161.28H193.843V163.176H190.195V170.064C190.195 170.752 190.363 171.28 190.699 171.648C191.051 172.016 191.547 172.2 192.187 172.2C192.891 172.2 193.491 172 193.987 171.6L194.707 173.256ZM208.594 157.944C207.218 157.944 206.53 158.688 206.53 160.176V161.28H210.226V163.176H206.578V174H204.274V163.176H202.114V161.28H204.274V160.152C204.274 158.888 204.642 157.888 205.378 157.152C206.114 156.416 207.146 156.048 208.474 156.048C208.986 156.048 209.466 156.112 209.914 156.24C210.362 156.368 210.746 156.552 211.066 156.792L210.37 158.544C209.842 158.144 209.25 157.944 208.594 157.944ZM217.659 174.144C216.395 174.144 215.259 173.864 214.251 173.304C213.243 172.744 212.451 171.976 211.875 171C211.315 170.008 211.035 168.888 211.035 167.64C211.035 166.392 211.315 165.28 211.875 164.304C212.451 163.312 213.243 162.544 214.251 162C215.259 161.44 216.395 161.16 217.659 161.16C218.923 161.16 220.051 161.44 221.043 162C222.051 162.544 222.835 163.312 223.395 164.304C223.971 165.28 224.259 166.392 224.259 167.64C224.259 168.888 223.971 170.008 223.395 171C222.835 171.976 222.051 172.744 221.043 173.304C220.051 173.864 218.923 174.144 217.659 174.144ZM217.659 172.128C218.475 172.128 219.203 171.944 219.843 171.576C220.499 171.192 221.011 170.664 221.379 169.992C221.747 169.304 221.931 168.52 221.931 167.64C221.931 166.76 221.747 165.984 221.379 165.312C221.011 164.624 220.499 164.096 219.843 163.728C219.203 163.36 218.475 163.176 217.659 163.176C216.843 163.176 216.107 163.36 215.451 163.728C214.811 164.096 214.299 164.624 213.915 165.312C213.547 165.984 213.363 166.76 213.363 167.64C213.363 168.52 213.547 169.304 213.915 169.992C214.299 170.664 214.811 171.192 215.451 171.576C216.107 171.944 216.843 172.128 217.659 172.128ZM229.654 163.416C230.054 162.68 230.646 162.12 231.43 161.736C232.214 161.352 233.166 161.16 234.286 161.16V163.392C234.158 163.376 233.982 163.368 233.758 163.368C232.51 163.368 231.526 163.744 230.806 164.496C230.102 165.232 229.75 166.288 229.75 167.664V174H227.446V161.28H229.654V163.416ZM254.991 161.28L248.823 175.272C248.279 176.568 247.639 177.48 246.903 178.008C246.183 178.536 245.311 178.8 244.287 178.8C243.663 178.8 243.055 178.696 242.463 178.488C241.887 178.296 241.407 178.008 241.023 177.624L242.007 175.896C242.663 176.52 243.423 176.832 244.287 176.832C244.847 176.832 245.311 176.68 245.679 176.376C246.063 176.088 246.407 175.584 246.711 174.864L247.119 173.976L241.503 161.28H243.903L248.343 171.456L252.735 161.28H254.991ZM262.237 174.144C260.973 174.144 259.837 173.864 258.829 173.304C257.821 172.744 257.029 171.976 256.453 171C255.893 170.008 255.613 168.888 255.613 167.64C255.613 166.392 255.893 165.28 256.453 164.304C257.029 163.312 257.821 162.544 258.829 162C259.837 161.44 260.973 161.16 262.237 161.16C263.501 161.16 264.629 161.44 265.621 162C266.629 162.544 267.413 163.312 267.973 164.304C268.549 165.28 268.837 166.392 268.837 167.64C268.837 168.888 268.549 170.008 267.973 171C267.413 171.976 266.629 172.744 265.621 173.304C264.629 173.864 263.501 174.144 262.237 174.144ZM262.237 172.128C263.053 172.128 263.781 171.944 264.421 171.576C265.077 171.192 265.589 170.664 265.957 169.992C266.325 169.304 266.509 168.52 266.509 167.64C266.509 166.76 266.325 165.984 265.957 165.312C265.589 164.624 265.077 164.096 264.421 163.728C263.781 163.36 263.053 163.176 262.237 163.176C261.421 163.176 260.685 163.36 260.029 163.728C259.389 164.096 258.877 164.624 258.493 165.312C258.125 165.984 257.941 166.76 257.941 167.64C257.941 168.52 258.125 169.304 258.493 169.992C258.877 170.664 259.389 171.192 260.029 171.576C260.685 171.944 261.421 172.128 262.237 172.128ZM283.88 161.28V174H281.696V172.08C281.232 172.736 280.616 173.248 279.848 173.616C279.096 173.968 278.272 174.144 277.376 174.144C275.68 174.144 274.344 173.68 273.368 172.752C272.392 171.808 271.904 170.424 271.904 168.6V161.28H274.208V168.336C274.208 169.568 274.504 170.504 275.096 171.144C275.688 171.768 276.536 172.08 277.64 172.08C278.856 172.08 279.816 171.712 280.52 170.976C281.224 170.24 281.576 169.2 281.576 167.856V161.28H283.88ZM290.474 163.416C290.874 162.68 291.466 162.12 292.25 161.736C293.034 161.352 293.986 161.16 295.106 161.16V163.392C294.978 163.376 294.802 163.368 294.578 163.368C293.33 163.368 292.346 163.744 291.626 164.496C290.922 165.232 290.57 166.288 290.57 167.664V174H288.266V161.28H290.474V163.416ZM88.6897 195.16C89.9217 195.16 91.0257 195.432 92.0017 195.976C92.9777 196.52 93.7377 197.28 94.2817 198.256C94.8417 199.232 95.1217 200.36 95.1217 201.64C95.1217 202.92 94.8417 204.056 94.2817 205.048C93.7377 206.024 92.9777 206.784 92.0017 207.328C91.0257 207.872 89.9217 208.144 88.6897 208.144C87.7777 208.144 86.9377 207.968 86.1697 207.616C85.4177 207.264 84.7777 206.752 84.2497 206.08V212.656H81.9457V195.28H84.1537V197.296C84.6657 196.592 85.3137 196.064 86.0977 195.712C86.8817 195.344 87.7457 195.16 88.6897 195.16ZM88.4977 206.128C89.3137 206.128 90.0417 205.944 90.6817 205.576C91.3377 205.192 91.8497 204.664 92.2177 203.992C92.6017 203.304 92.7937 202.52 92.7937 201.64C92.7937 200.76 92.6017 199.984 92.2177 199.312C91.8497 198.624 91.3377 198.096 90.6817 197.728C90.0417 197.36 89.3137 197.176 88.4977 197.176C87.6977 197.176 86.9697 197.368 86.3137 197.752C85.6737 198.12 85.1617 198.64 84.7777 199.312C84.4097 199.984 84.2257 200.76 84.2257 201.64C84.2257 202.52 84.4097 203.304 84.7777 203.992C85.1457 204.664 85.6577 205.192 86.3137 205.576C86.9697 205.944 87.6977 206.128 88.4977 206.128ZM100.513 197.416C100.913 196.68 101.505 196.12 102.289 195.736C103.073 195.352 104.025 195.16 105.145 195.16V197.392C105.017 197.376 104.841 197.368 104.617 197.368C103.369 197.368 102.385 197.744 101.665 198.496C100.961 199.232 100.609 200.288 100.609 201.664V208H98.3051V195.28H100.513V197.416ZM113.316 208.144C112.052 208.144 110.916 207.864 109.908 207.304C108.9 206.744 108.108 205.976 107.532 205C106.972 204.008 106.692 202.888 106.692 201.64C106.692 200.392 106.972 199.28 107.532 198.304C108.108 197.312 108.9 196.544 109.908 196C110.916 195.44 112.052 195.16 113.316 195.16C114.58 195.16 115.708 195.44 116.7 196C117.708 196.544 118.492 197.312 119.052 198.304C119.628 199.28 119.916 200.392 119.916 201.64C119.916 202.888 119.628 204.008 119.052 205C118.492 205.976 117.708 206.744 116.7 207.304C115.708 207.864 114.58 208.144 113.316 208.144ZM113.316 206.128C114.132 206.128 114.86 205.944 115.5 205.576C116.156 205.192 116.668 204.664 117.036 203.992C117.404 203.304 117.588 202.52 117.588 201.64C117.588 200.76 117.404 199.984 117.036 199.312C116.668 198.624 116.156 198.096 115.5 197.728C114.86 197.36 114.132 197.176 113.316 197.176C112.5 197.176 111.764 197.36 111.108 197.728C110.468 198.096 109.956 198.624 109.572 199.312C109.204 199.984 109.02 200.76 109.02 201.64C109.02 202.52 109.204 203.304 109.572 203.992C109.956 204.664 110.468 205.192 111.108 205.576C111.764 205.944 112.5 206.128 113.316 206.128ZM135.102 190.192V208H132.894V205.984C132.382 206.688 131.734 207.224 130.95 207.592C130.166 207.96 129.302 208.144 128.358 208.144C127.126 208.144 126.022 207.872 125.046 207.328C124.07 206.784 123.302 206.024 122.742 205.048C122.198 204.056 121.926 202.92 121.926 201.64C121.926 200.36 122.198 199.232 122.742 198.256C123.302 197.28 124.07 196.52 125.046 195.976C126.022 195.432 127.126 195.16 128.358 195.16C129.27 195.16 130.11 195.336 130.878 195.688C131.646 196.024 132.286 196.528 132.798 197.2V190.192H135.102ZM128.55 206.128C129.35 206.128 130.078 205.944 130.734 205.576C131.39 205.192 131.902 204.664 132.27 203.992C132.638 203.304 132.822 202.52 132.822 201.64C132.822 200.76 132.638 199.984 132.27 199.312C131.902 198.624 131.39 198.096 130.734 197.728C130.078 197.36 129.35 197.176 128.55 197.176C127.734 197.176 126.998 197.36 126.342 197.728C125.702 198.096 125.19 198.624 124.806 199.312C124.438 199.984 124.254 200.76 124.254 201.64C124.254 202.52 124.438 203.304 124.806 203.992C125.19 204.664 125.702 205.192 126.342 205.576C126.998 205.944 127.734 206.128 128.55 206.128ZM151.317 195.28V208H149.133V206.08C148.669 206.736 148.053 207.248 147.285 207.616C146.533 207.968 145.709 208.144 144.813 208.144C143.117 208.144 141.781 207.68 140.805 206.752C139.829 205.808 139.341 204.424 139.341 202.6V195.28H141.645V202.336C141.645 203.568 141.941 204.504 142.533 205.144C143.125 205.768 143.973 206.08 145.077 206.08C146.293 206.08 147.253 205.712 147.957 204.976C148.661 204.24 149.013 203.2 149.013 201.856V195.28H151.317ZM161.248 208.144C159.952 208.144 158.792 207.864 157.768 207.304C156.76 206.744 155.968 205.976 155.392 205C154.816 204.008 154.528 202.888 154.528 201.64C154.528 200.392 154.816 199.28 155.392 198.304C155.968 197.312 156.76 196.544 157.768 196C158.792 195.44 159.952 195.16 161.248 195.16C162.4 195.16 163.424 195.392 164.32 195.856C165.232 196.32 165.936 196.992 166.432 197.872L164.68 199C164.28 198.392 163.784 197.936 163.192 197.632C162.6 197.328 161.944 197.176 161.224 197.176C160.392 197.176 159.64 197.36 158.968 197.728C158.312 198.096 157.792 198.624 157.408 199.312C157.04 199.984 156.856 200.76 156.856 201.64C156.856 202.536 157.04 203.328 157.408 204.016C157.792 204.688 158.312 205.208 158.968 205.576C159.64 205.944 160.392 206.128 161.224 206.128C161.944 206.128 162.6 205.976 163.192 205.672C163.784 205.368 164.28 204.912 164.68 204.304L166.432 205.408C165.936 206.288 165.232 206.968 164.32 207.448C163.424 207.912 162.4 208.144 161.248 208.144ZM176.731 207.256C176.395 207.544 175.979 207.768 175.483 207.928C174.987 208.072 174.475 208.144 173.947 208.144C172.667 208.144 171.675 207.8 170.971 207.112C170.267 206.424 169.915 205.44 169.915 204.16V197.176H167.755V195.28H169.915V192.496H172.219V195.28H175.867V197.176H172.219V204.064C172.219 204.752 172.387 205.28 172.723 205.648C173.075 206.016 173.571 206.2 174.211 206.2C174.915 206.2 175.515 206 176.011 205.6L176.731 207.256ZM197.817 195.28V208H195.633V206.08C195.169 206.736 194.553 207.248 193.785 207.616C193.033 207.968 192.209 208.144 191.313 208.144C189.617 208.144 188.281 207.68 187.305 206.752C186.329 205.808 185.841 204.424 185.841 202.6V195.28H188.145V202.336C188.145 203.568 188.441 204.504 189.033 205.144C189.625 205.768 190.473 206.08 191.577 206.08C192.793 206.08 193.753 205.712 194.457 204.976C195.161 204.24 195.513 203.2 195.513 201.856V195.28H197.817ZM208.996 195.16C210.612 195.16 211.892 195.632 212.836 196.576C213.796 197.504 214.276 198.872 214.276 200.68V208H211.972V200.944C211.972 199.712 211.676 198.784 211.084 198.16C210.492 197.536 209.644 197.224 208.54 197.224C207.292 197.224 206.308 197.592 205.588 198.328C204.868 199.048 204.508 200.088 204.508 201.448V208H202.204V195.28H204.412V197.2C204.876 196.544 205.5 196.04 206.284 195.688C207.084 195.336 207.988 195.16 208.996 195.16ZM218.539 195.28H220.843V208H218.539V195.28ZM219.691 192.832C219.243 192.832 218.867 192.688 218.563 192.4C218.275 192.112 218.131 191.76 218.131 191.344C218.131 190.928 218.275 190.576 218.563 190.288C218.867 189.984 219.243 189.832 219.691 189.832C220.139 189.832 220.507 189.976 220.795 190.264C221.099 190.536 221.251 190.88 221.251 191.296C221.251 191.728 221.099 192.096 220.795 192.4C220.507 192.688 220.139 192.832 219.691 192.832ZM236.499 195.28L230.931 208H228.579L223.011 195.28H225.411L229.779 205.48L234.243 195.28H236.499ZM249.793 201.712C249.793 201.888 249.777 202.12 249.745 202.408H239.425C239.569 203.528 240.057 204.432 240.889 205.12C241.737 205.792 242.785 206.128 244.033 206.128C245.553 206.128 246.777 205.616 247.705 204.592L248.977 206.08C248.401 206.752 247.681 207.264 246.817 207.616C245.969 207.968 245.017 208.144 243.961 208.144C242.617 208.144 241.425 207.872 240.385 207.328C239.345 206.768 238.537 205.992 237.961 205C237.401 204.008 237.121 202.888 237.121 201.64C237.121 200.408 237.393 199.296 237.937 198.304C238.497 197.312 239.257 196.544 240.217 196C241.193 195.44 242.289 195.16 243.505 195.16C244.721 195.16 245.801 195.44 246.745 196C247.705 196.544 248.449 197.312 248.977 198.304C249.521 199.296 249.793 200.432 249.793 201.712ZM243.505 197.104C242.401 197.104 241.473 197.44 240.721 198.112C239.985 198.784 239.553 199.664 239.425 200.752H247.585C247.457 199.68 247.017 198.808 246.265 198.136C245.529 197.448 244.609 197.104 243.505 197.104ZM255.201 197.416C255.601 196.68 256.193 196.12 256.977 195.736C257.761 195.352 258.713 195.16 259.833 195.16V197.392C259.705 197.376 259.529 197.368 259.305 197.368C258.057 197.368 257.073 197.744 256.353 198.496C255.649 199.232 255.297 200.288 255.297 201.664V208H252.993V195.28H255.201V197.416ZM266.414 208.144C265.374 208.144 264.374 208.008 263.414 207.736C262.454 207.448 261.702 207.088 261.158 206.656L262.118 204.832C262.678 205.232 263.358 205.552 264.158 205.792C264.958 206.032 265.766 206.152 266.582 206.152C268.598 206.152 269.606 205.576 269.606 204.424C269.606 204.04 269.47 203.736 269.198 203.512C268.926 203.288 268.582 203.128 268.166 203.032C267.766 202.92 267.19 202.8 266.438 202.672C265.414 202.512 264.574 202.328 263.918 202.12C263.278 201.912 262.726 201.56 262.262 201.064C261.798 200.568 261.566 199.872 261.566 198.976C261.566 197.824 262.046 196.904 263.006 196.216C263.966 195.512 265.254 195.16 266.87 195.16C267.718 195.16 268.566 195.264 269.414 195.472C270.262 195.68 270.958 195.96 271.502 196.312L270.518 198.136C269.478 197.464 268.254 197.128 266.846 197.128C265.87 197.128 265.126 197.288 264.614 197.608C264.102 197.928 263.846 198.352 263.846 198.88C263.846 199.296 263.99 199.624 264.278 199.864C264.566 200.104 264.918 200.28 265.334 200.392C265.766 200.504 266.366 200.632 267.134 200.776C268.158 200.952 268.982 201.144 269.606 201.352C270.246 201.544 270.79 201.88 271.238 202.36C271.686 202.84 271.91 203.512 271.91 204.376C271.91 205.528 271.414 206.448 270.422 207.136C269.446 207.808 268.11 208.144 266.414 208.144ZM286.285 201.712C286.285 201.888 286.269 202.12 286.237 202.408H275.917C276.061 203.528 276.549 204.432 277.381 205.12C278.229 205.792 279.277 206.128 280.525 206.128C282.045 206.128 283.269 205.616 284.197 204.592L285.469 206.08C284.893 206.752 284.173 207.264 283.309 207.616C282.461 207.968 281.509 208.144 280.453 208.144C279.109 208.144 277.917 207.872 276.877 207.328C275.837 206.768 275.029 205.992 274.453 205C273.893 204.008 273.613 202.888 273.613 201.64C273.613 200.408 273.885 199.296 274.429 198.304C274.989 197.312 275.749 196.544 276.709 196C277.685 195.44 278.781 195.16 279.997 195.16C281.213 195.16 282.293 195.44 283.237 196C284.197 196.544 284.941 197.312 285.469 198.304C286.013 199.296 286.285 200.432 286.285 201.712ZM279.997 197.104C278.893 197.104 277.965 197.44 277.213 198.112C276.477 198.784 276.045 199.664 275.917 200.752H284.077C283.949 199.68 283.509 198.808 282.757 198.136C282.021 197.448 281.101 197.104 279.997 197.104Z" fill="#5F1D4E"></path><rect x="53.5312" y="657" width="262" height="47" rx="23.5" fill="#6EC086"></rect><path d="M144.569 680.914H146.66V685.657C146.048 686.144 145.334 686.518 144.518 686.779C143.702 687.04 142.863 687.17 142.002 687.17C140.789 687.17 139.695 686.909 138.721 686.388C137.746 685.855 136.981 685.124 136.426 684.195C135.87 683.266 135.593 682.217 135.593 681.05C135.593 679.883 135.87 678.834 136.426 677.905C136.981 676.976 137.746 676.25 138.721 675.729C139.707 675.196 140.812 674.93 142.036 674.93C143.033 674.93 143.94 675.094 144.756 675.423C145.572 675.752 146.257 676.233 146.813 676.868L145.419 678.228C144.512 677.321 143.418 676.868 142.138 676.868C141.299 676.868 140.551 677.044 139.894 677.395C139.248 677.746 138.738 678.239 138.364 678.874C138.001 679.509 137.82 680.234 137.82 681.05C137.82 681.843 138.001 682.557 138.364 683.192C138.738 683.827 139.248 684.325 139.894 684.688C140.551 685.051 141.293 685.232 142.121 685.232C143.05 685.232 143.866 685.028 144.569 684.62V680.914ZM157.905 682.512C157.905 682.659 157.893 682.869 157.871 683.141H150.748C150.872 683.81 151.195 684.342 151.717 684.739C152.249 685.124 152.907 685.317 153.689 685.317C154.686 685.317 155.508 684.988 156.154 684.331L157.293 685.64C156.885 686.127 156.369 686.496 155.746 686.745C155.122 686.994 154.42 687.119 153.638 687.119C152.64 687.119 151.762 686.921 151.003 686.524C150.243 686.127 149.654 685.578 149.235 684.875C148.827 684.161 148.623 683.356 148.623 682.461C148.623 681.577 148.821 680.784 149.218 680.081C149.626 679.367 150.187 678.812 150.901 678.415C151.615 678.018 152.419 677.82 153.315 677.82C154.199 677.82 154.986 678.018 155.678 678.415C156.38 678.8 156.924 679.35 157.31 680.064C157.706 680.767 157.905 681.583 157.905 682.512ZM153.315 679.52C152.635 679.52 152.057 679.724 151.581 680.132C151.116 680.529 150.833 681.061 150.731 681.73H155.882C155.791 681.073 155.513 680.54 155.049 680.132C154.584 679.724 154.006 679.52 153.315 679.52ZM165.403 686.507C165.153 686.711 164.847 686.864 164.485 686.966C164.133 687.068 163.759 687.119 163.363 687.119C162.365 687.119 161.595 686.858 161.051 686.337C160.507 685.816 160.235 685.056 160.235 684.059V679.69H158.739V677.99H160.235V675.916H162.36V677.99H164.791V679.69H162.36V684.008C162.36 684.45 162.467 684.79 162.683 685.028C162.898 685.255 163.21 685.368 163.618 685.368C164.094 685.368 164.49 685.243 164.808 684.994L165.403 686.507ZM175.742 687.17C174.824 687.17 173.934 687.04 173.073 686.779C172.223 686.518 171.549 686.173 171.05 685.742L171.815 684.025C172.302 684.41 172.897 684.728 173.6 684.977C174.314 685.215 175.028 685.334 175.742 685.334C176.626 685.334 177.283 685.192 177.714 684.909C178.156 684.626 178.377 684.252 178.377 683.787C178.377 683.447 178.252 683.169 178.003 682.954C177.765 682.727 177.459 682.552 177.085 682.427C176.711 682.302 176.201 682.161 175.555 682.002C174.648 681.787 173.912 681.571 173.345 681.356C172.79 681.141 172.308 680.806 171.9 680.353C171.503 679.888 171.305 679.265 171.305 678.483C171.305 677.826 171.481 677.231 171.832 676.698C172.195 676.154 172.733 675.723 173.447 675.406C174.172 675.089 175.056 674.93 176.099 674.93C176.824 674.93 177.538 675.021 178.241 675.202C178.944 675.383 179.55 675.644 180.06 675.984L179.363 677.701C178.842 677.395 178.298 677.163 177.731 677.004C177.164 676.845 176.615 676.766 176.082 676.766C175.209 676.766 174.558 676.913 174.127 677.208C173.708 677.503 173.498 677.894 173.498 678.381C173.498 678.721 173.617 678.999 173.855 679.214C174.104 679.429 174.416 679.599 174.79 679.724C175.164 679.849 175.674 679.99 176.32 680.149C177.204 680.353 177.929 680.568 178.496 680.795C179.063 681.01 179.544 681.345 179.941 681.798C180.349 682.251 180.553 682.863 180.553 683.634C180.553 684.291 180.372 684.886 180.009 685.419C179.658 685.952 179.119 686.377 178.394 686.694C177.669 687.011 176.785 687.17 175.742 687.17ZM187.997 686.507C187.748 686.711 187.442 686.864 187.079 686.966C186.728 687.068 186.354 687.119 185.957 687.119C184.96 687.119 184.189 686.858 183.645 686.337C183.101 685.816 182.829 685.056 182.829 684.059V679.69H181.333V677.99H182.829V675.916H184.954V677.99H187.385V679.69H184.954V684.008C184.954 684.45 185.062 684.79 185.277 685.028C185.493 685.255 185.804 685.368 186.212 685.368C186.688 685.368 187.085 685.243 187.402 684.994L187.997 686.507ZM193.214 677.82C194.551 677.82 195.571 678.143 196.274 678.789C196.988 679.424 197.345 680.387 197.345 681.679V687H195.339V685.895C195.078 686.292 194.704 686.598 194.217 686.813C193.741 687.017 193.163 687.119 192.483 687.119C191.803 687.119 191.208 687.006 190.698 686.779C190.188 686.541 189.791 686.218 189.508 685.81C189.236 685.391 189.1 684.92 189.1 684.399C189.1 683.583 189.4 682.931 190.001 682.444C190.613 681.945 191.57 681.696 192.874 681.696H195.22V681.56C195.22 680.925 195.027 680.438 194.642 680.098C194.268 679.758 193.707 679.588 192.959 679.588C192.449 679.588 191.944 679.667 191.446 679.826C190.958 679.985 190.545 680.206 190.205 680.489L189.372 678.942C189.848 678.579 190.42 678.302 191.089 678.109C191.757 677.916 192.466 677.82 193.214 677.82ZM192.925 685.572C193.457 685.572 193.928 685.453 194.336 685.215C194.755 684.966 195.05 684.614 195.22 684.161V683.107H193.027C191.803 683.107 191.191 683.509 191.191 684.314C191.191 684.699 191.344 685.005 191.65 685.232C191.956 685.459 192.381 685.572 192.925 685.572ZM202.095 679.248C202.707 678.296 203.783 677.82 205.325 677.82V679.843C205.143 679.809 204.979 679.792 204.832 679.792C204.004 679.792 203.358 680.036 202.894 680.523C202.429 680.999 202.197 681.69 202.197 682.597V687H200.072V677.922H202.095V679.248ZM212.916 686.507C212.667 686.711 212.361 686.864 211.998 686.966C211.647 687.068 211.273 687.119 210.876 687.119C209.879 687.119 209.108 686.858 208.564 686.337C208.02 685.816 207.748 685.056 207.748 684.059V679.69H206.252V677.99H207.748V675.916H209.873V677.99H212.304V679.69H209.873V684.008C209.873 684.45 209.981 684.79 210.196 685.028C210.412 685.255 210.723 685.368 211.131 685.368C211.607 685.368 212.004 685.243 212.321 684.994L212.916 686.507ZM222.9 682.512C222.9 682.659 222.888 682.869 222.866 683.141H215.743C215.867 683.81 216.19 684.342 216.712 684.739C217.244 685.124 217.902 685.317 218.684 685.317C219.681 685.317 220.503 684.988 221.149 684.331L222.288 685.64C221.88 686.127 221.364 686.496 220.741 686.745C220.117 686.994 219.415 687.119 218.633 687.119C217.635 687.119 216.757 686.921 215.998 686.524C215.238 686.127 214.649 685.578 214.23 684.875C213.822 684.161 213.618 683.356 213.618 682.461C213.618 681.577 213.816 680.784 214.213 680.081C214.621 679.367 215.182 678.812 215.896 678.415C216.61 678.018 217.414 677.82 218.31 677.82C219.194 677.82 219.981 678.018 220.673 678.415C221.375 678.8 221.919 679.35 222.305 680.064C222.701 680.767 222.9 681.583 222.9 682.512ZM218.31 679.52C217.63 679.52 217.052 679.724 216.576 680.132C216.111 680.529 215.828 681.061 215.726 681.73H220.877C220.786 681.073 220.508 680.54 220.044 680.132C219.579 679.724 219.001 679.52 218.31 679.52ZM233.832 674.386V687H231.792V685.827C231.441 686.258 231.004 686.581 230.483 686.796C229.973 687.011 229.406 687.119 228.783 687.119C227.91 687.119 227.123 686.926 226.42 686.541C225.729 686.156 225.185 685.612 224.788 684.909C224.391 684.195 224.193 683.379 224.193 682.461C224.193 681.543 224.391 680.733 224.788 680.03C225.185 679.327 225.729 678.783 226.42 678.398C227.123 678.013 227.91 677.82 228.783 677.82C229.384 677.82 229.933 677.922 230.432 678.126C230.931 678.33 231.356 678.636 231.707 679.044V674.386H233.832ZM229.038 685.3C229.548 685.3 230.007 685.187 230.415 684.96C230.823 684.722 231.146 684.388 231.384 683.957C231.622 683.526 231.741 683.028 231.741 682.461C231.741 681.894 231.622 681.396 231.384 680.965C231.146 680.534 230.823 680.206 230.415 679.979C230.007 679.741 229.548 679.622 229.038 679.622C228.528 679.622 228.069 679.741 227.661 679.979C227.253 680.206 226.93 680.534 226.692 680.965C226.454 681.396 226.335 681.894 226.335 682.461C226.335 683.028 226.454 683.526 226.692 683.957C226.93 684.388 227.253 684.722 227.661 684.96C228.069 685.187 228.528 685.3 229.038 685.3Z" fill="white"></path><path d="M103.425 581.55H98.2169L97.1389 584H95.6969L100.135 574.2H101.521L105.973 584H104.503L103.425 581.55ZM102.935 580.43L100.821 575.628L98.7069 580.43H102.935ZM107.239 573.612H108.583V584H107.239V573.612ZM111.149 573.612H112.493V584H111.149V573.612ZM121.997 584.084C121.26 584.084 120.597 583.921 120.009 583.594C119.421 583.267 118.959 582.819 118.623 582.25C118.296 581.671 118.133 581.018 118.133 580.29C118.133 579.562 118.296 578.913 118.623 578.344C118.959 577.765 119.421 577.317 120.009 577C120.597 576.673 121.26 576.51 121.997 576.51C122.734 576.51 123.392 576.673 123.971 577C124.559 577.317 125.016 577.765 125.343 578.344C125.679 578.913 125.847 579.562 125.847 580.29C125.847 581.018 125.679 581.671 125.343 582.25C125.016 582.819 124.559 583.267 123.971 583.594C123.392 583.921 122.734 584.084 121.997 584.084ZM121.997 582.908C122.473 582.908 122.898 582.801 123.271 582.586C123.654 582.362 123.952 582.054 124.167 581.662C124.382 581.261 124.489 580.803 124.489 580.29C124.489 579.777 124.382 579.324 124.167 578.932C123.952 578.531 123.654 578.223 123.271 578.008C122.898 577.793 122.473 577.686 121.997 577.686C121.521 577.686 121.092 577.793 120.709 578.008C120.336 578.223 120.037 578.531 119.813 578.932C119.598 579.324 119.491 579.777 119.491 580.29C119.491 580.803 119.598 581.261 119.813 581.662C120.037 582.054 120.336 582.362 120.709 582.586C121.092 582.801 121.521 582.908 121.997 582.908ZM130.422 574.634C129.619 574.634 129.218 575.068 129.218 575.936V576.58H131.374V577.686H129.246V584H127.902V577.686H126.642V576.58H127.902V575.922C127.902 575.185 128.116 574.601 128.546 574.172C128.975 573.743 129.577 573.528 130.352 573.528C130.65 573.528 130.93 573.565 131.192 573.64C131.453 573.715 131.677 573.822 131.864 573.962L131.458 574.984C131.15 574.751 130.804 574.634 130.422 574.634ZM142.967 576.58L139.369 584.742C139.052 585.498 138.678 586.03 138.249 586.338C137.829 586.646 137.32 586.8 136.723 586.8C136.359 586.8 136.004 586.739 135.659 586.618C135.323 586.506 135.043 586.338 134.819 586.114L135.393 585.106C135.776 585.47 136.219 585.652 136.723 585.652C137.05 585.652 137.32 585.563 137.535 585.386C137.759 585.218 137.96 584.924 138.137 584.504L138.375 583.986L135.099 576.58H136.499L139.089 582.516L141.651 576.58H142.967ZM147.194 584.084C146.457 584.084 145.794 583.921 145.206 583.594C144.618 583.267 144.156 582.819 143.82 582.25C143.494 581.671 143.33 581.018 143.33 580.29C143.33 579.562 143.494 578.913 143.82 578.344C144.156 577.765 144.618 577.317 145.206 577C145.794 576.673 146.457 576.51 147.194 576.51C147.932 576.51 148.59 576.673 149.168 577C149.756 577.317 150.214 577.765 150.54 578.344C150.876 578.913 151.044 579.562 151.044 580.29C151.044 581.018 150.876 581.671 150.54 582.25C150.214 582.819 149.756 583.267 149.168 583.594C148.59 583.921 147.932 584.084 147.194 584.084ZM147.194 582.908C147.67 582.908 148.095 582.801 148.468 582.586C148.851 582.362 149.15 582.054 149.364 581.662C149.579 581.261 149.686 580.803 149.686 580.29C149.686 579.777 149.579 579.324 149.364 578.932C149.15 578.531 148.851 578.223 148.468 578.008C148.095 577.793 147.67 577.686 147.194 577.686C146.718 577.686 146.289 577.793 145.906 578.008C145.533 578.223 145.234 578.531 145.01 578.932C144.796 579.324 144.688 579.777 144.688 580.29C144.688 580.803 144.796 581.261 145.01 581.662C145.234 582.054 145.533 582.362 145.906 582.586C146.289 582.801 146.718 582.908 147.194 582.908ZM159.819 576.58V584H158.545V582.88C158.274 583.263 157.915 583.561 157.467 583.776C157.028 583.981 156.548 584.084 156.025 584.084C155.036 584.084 154.256 583.813 153.687 583.272C153.118 582.721 152.833 581.914 152.833 580.85V576.58H154.177V580.696C154.177 581.415 154.35 581.961 154.695 582.334C155.04 582.698 155.535 582.88 156.179 582.88C156.888 582.88 157.448 582.665 157.859 582.236C158.27 581.807 158.475 581.2 158.475 580.416V576.58H159.819ZM163.666 577.826C163.899 577.397 164.244 577.07 164.702 576.846C165.159 576.622 165.714 576.51 166.368 576.51V577.812C166.293 577.803 166.19 577.798 166.06 577.798C165.332 577.798 164.758 578.017 164.338 578.456C163.927 578.885 163.722 579.501 163.722 580.304V584H162.378V576.58H163.666V577.826ZM175.113 584.084C174.357 584.084 173.681 583.921 173.083 583.594C172.495 583.267 172.033 582.819 171.697 582.25C171.361 581.671 171.193 581.018 171.193 580.29C171.193 579.562 171.361 578.913 171.697 578.344C172.033 577.765 172.495 577.317 173.083 577C173.681 576.673 174.357 576.51 175.113 576.51C175.785 576.51 176.383 576.645 176.905 576.916C177.437 577.187 177.848 577.579 178.137 578.092L177.115 578.75C176.882 578.395 176.593 578.129 176.247 577.952C175.902 577.775 175.519 577.686 175.099 577.686C174.614 577.686 174.175 577.793 173.783 578.008C173.401 578.223 173.097 578.531 172.873 578.932C172.659 579.324 172.551 579.777 172.551 580.29C172.551 580.813 172.659 581.275 172.873 581.676C173.097 582.068 173.401 582.371 173.783 582.586C174.175 582.801 174.614 582.908 175.099 582.908C175.519 582.908 175.902 582.819 176.247 582.642C176.593 582.465 176.882 582.199 177.115 581.844L178.137 582.488C177.848 583.001 177.437 583.398 176.905 583.678C176.383 583.949 175.785 584.084 175.113 584.084ZM182.946 584.084C182.209 584.084 181.546 583.921 180.958 583.594C180.37 583.267 179.908 582.819 179.572 582.25C179.245 581.671 179.082 581.018 179.082 580.29C179.082 579.562 179.245 578.913 179.572 578.344C179.908 577.765 180.37 577.317 180.958 577C181.546 576.673 182.209 576.51 182.946 576.51C183.683 576.51 184.341 576.673 184.92 577C185.508 577.317 185.965 577.765 186.292 578.344C186.628 578.913 186.796 579.562 186.796 580.29C186.796 581.018 186.628 581.671 186.292 582.25C185.965 582.819 185.508 583.267 184.92 583.594C184.341 583.921 183.683 584.084 182.946 584.084ZM182.946 582.908C183.422 582.908 183.847 582.801 184.22 582.586C184.603 582.362 184.901 582.054 185.116 581.662C185.331 581.261 185.438 580.803 185.438 580.29C185.438 579.777 185.331 579.324 185.116 578.932C184.901 578.531 184.603 578.223 184.22 578.008C183.847 577.793 183.422 577.686 182.946 577.686C182.47 577.686 182.041 577.793 181.658 578.008C181.285 578.223 180.986 578.531 180.762 578.932C180.547 579.324 180.44 579.777 180.44 580.29C180.44 580.803 180.547 581.261 180.762 581.662C180.986 582.054 181.285 582.362 181.658 582.586C182.041 582.801 182.47 582.908 182.946 582.908ZM192.617 576.51C193.56 576.51 194.306 576.785 194.857 577.336C195.417 577.877 195.697 578.675 195.697 579.73V584H194.353V579.884C194.353 579.165 194.18 578.624 193.835 578.26C193.49 577.896 192.995 577.714 192.351 577.714C191.623 577.714 191.049 577.929 190.629 578.358C190.209 578.778 189.999 579.385 189.999 580.178V584H188.655V576.58H189.943V577.7C190.214 577.317 190.578 577.023 191.035 576.818C191.502 576.613 192.029 576.51 192.617 576.51ZM204.613 576.58L201.365 584H199.993L196.745 576.58H198.145L200.693 582.53L203.297 576.58H204.613ZM212.369 580.332C212.369 580.435 212.359 580.57 212.341 580.738H206.321C206.405 581.391 206.689 581.919 207.175 582.32C207.669 582.712 208.281 582.908 209.009 582.908C209.895 582.908 210.609 582.609 211.151 582.012L211.893 582.88C211.557 583.272 211.137 583.571 210.633 583.776C210.138 583.981 209.583 584.084 208.967 584.084C208.183 584.084 207.487 583.925 206.881 583.608C206.274 583.281 205.803 582.829 205.467 582.25C205.14 581.671 204.977 581.018 204.977 580.29C204.977 579.571 205.135 578.923 205.453 578.344C205.779 577.765 206.223 577.317 206.783 577C207.352 576.673 207.991 576.51 208.701 576.51C209.41 576.51 210.04 576.673 210.591 577C211.151 577.317 211.585 577.765 211.893 578.344C212.21 578.923 212.369 579.585 212.369 580.332ZM208.701 577.644C208.057 577.644 207.515 577.84 207.077 578.232C206.647 578.624 206.395 579.137 206.321 579.772H211.081C211.006 579.147 210.749 578.638 210.311 578.246C209.881 577.845 209.345 577.644 208.701 577.644ZM215.523 577.826C215.756 577.397 216.102 577.07 216.559 576.846C217.016 576.622 217.572 576.51 218.225 576.51V577.812C218.15 577.803 218.048 577.798 217.917 577.798C217.189 577.798 216.615 578.017 216.195 578.456C215.784 578.885 215.579 579.501 215.579 580.304V584H214.235V576.58H215.523V577.826ZM222.064 584.084C221.457 584.084 220.874 584.005 220.314 583.846C219.754 583.678 219.315 583.468 218.998 583.216L219.558 582.152C219.885 582.385 220.281 582.572 220.748 582.712C221.215 582.852 221.686 582.922 222.162 582.922C223.338 582.922 223.926 582.586 223.926 581.914C223.926 581.69 223.847 581.513 223.688 581.382C223.529 581.251 223.329 581.158 223.086 581.102C222.853 581.037 222.517 580.967 222.078 580.892C221.481 580.799 220.991 580.691 220.608 580.57C220.235 580.449 219.913 580.243 219.642 579.954C219.371 579.665 219.236 579.259 219.236 578.736C219.236 578.064 219.516 577.527 220.076 577.126C220.636 576.715 221.387 576.51 222.33 576.51C222.825 576.51 223.319 576.571 223.814 576.692C224.309 576.813 224.715 576.977 225.032 577.182L224.458 578.246C223.851 577.854 223.137 577.658 222.316 577.658C221.747 577.658 221.313 577.751 221.014 577.938C220.715 578.125 220.566 578.372 220.566 578.68C220.566 578.923 220.65 579.114 220.818 579.254C220.986 579.394 221.191 579.497 221.434 579.562C221.686 579.627 222.036 579.702 222.484 579.786C223.081 579.889 223.562 580.001 223.926 580.122C224.299 580.234 224.617 580.43 224.878 580.71C225.139 580.99 225.27 581.382 225.27 581.886C225.27 582.558 224.981 583.095 224.402 583.496C223.833 583.888 223.053 584.084 222.064 584.084ZM229.652 576.51C230.678 576.51 231.462 576.762 232.004 577.266C232.554 577.77 232.83 578.521 232.83 579.52V584H231.556V583.02C231.332 583.365 231.01 583.631 230.59 583.818C230.179 583.995 229.689 584.084 229.12 584.084C228.289 584.084 227.622 583.883 227.118 583.482C226.623 583.081 226.376 582.553 226.376 581.9C226.376 581.247 226.614 580.724 227.09 580.332C227.566 579.931 228.322 579.73 229.358 579.73H231.486V579.464C231.486 578.885 231.318 578.442 230.982 578.134C230.646 577.826 230.151 577.672 229.498 577.672C229.059 577.672 228.63 577.747 228.21 577.896C227.79 578.036 227.435 578.227 227.146 578.47L226.586 577.462C226.968 577.154 227.426 576.921 227.958 576.762C228.49 576.594 229.054 576.51 229.652 576.51ZM229.344 583.048C229.857 583.048 230.3 582.936 230.674 582.712C231.047 582.479 231.318 582.152 231.486 581.732V580.696H229.414C228.275 580.696 227.706 581.079 227.706 581.844C227.706 582.217 227.85 582.511 228.14 582.726C228.429 582.941 228.83 583.048 229.344 583.048ZM239.489 583.566C239.293 583.734 239.05 583.865 238.761 583.958C238.472 584.042 238.173 584.084 237.865 584.084C237.118 584.084 236.54 583.883 236.129 583.482C235.718 583.081 235.513 582.507 235.513 581.76V577.686H234.253V576.58H235.513V574.956H236.857V576.58H238.985V577.686H236.857V581.704C236.857 582.105 236.955 582.413 237.151 582.628C237.356 582.843 237.646 582.95 238.019 582.95C238.43 582.95 238.78 582.833 239.069 582.6L239.489 583.566ZM241.114 576.58H242.458V584H241.114V576.58ZM241.786 575.152C241.525 575.152 241.305 575.068 241.128 574.9C240.96 574.732 240.876 574.527 240.876 574.284C240.876 574.041 240.96 573.836 241.128 573.668C241.305 573.491 241.525 573.402 241.786 573.402C242.047 573.402 242.262 573.486 242.43 573.654C242.607 573.813 242.696 574.013 242.696 574.256C242.696 574.508 242.607 574.723 242.43 574.9C242.262 575.068 242.047 575.152 241.786 575.152ZM248.202 584.084C247.465 584.084 246.802 583.921 246.214 583.594C245.626 583.267 245.164 582.819 244.828 582.25C244.501 581.671 244.338 581.018 244.338 580.29C244.338 579.562 244.501 578.913 244.828 578.344C245.164 577.765 245.626 577.317 246.214 577C246.802 576.673 247.465 576.51 248.202 576.51C248.939 576.51 249.597 576.673 250.176 577C250.764 577.317 251.221 577.765 251.548 578.344C251.884 578.913 252.052 579.562 252.052 580.29C252.052 581.018 251.884 581.671 251.548 582.25C251.221 582.819 250.764 583.267 250.176 583.594C249.597 583.921 248.939 584.084 248.202 584.084ZM248.202 582.908C248.678 582.908 249.103 582.801 249.476 582.586C249.859 582.362 250.157 582.054 250.372 581.662C250.587 581.261 250.694 580.803 250.694 580.29C250.694 579.777 250.587 579.324 250.372 578.932C250.157 578.531 249.859 578.223 249.476 578.008C249.103 577.793 248.678 577.686 248.202 577.686C247.726 577.686 247.297 577.793 246.914 578.008C246.541 578.223 246.242 578.531 246.018 578.932C245.803 579.324 245.696 579.777 245.696 580.29C245.696 580.803 245.803 581.261 246.018 581.662C246.242 582.054 246.541 582.362 246.914 582.586C247.297 582.801 247.726 582.908 248.202 582.908ZM257.873 576.51C258.815 576.51 259.562 576.785 260.113 577.336C260.673 577.877 260.953 578.675 260.953 579.73V584H259.609V579.884C259.609 579.165 259.436 578.624 259.091 578.26C258.745 577.896 258.251 577.714 257.607 577.714C256.879 577.714 256.305 577.929 255.885 578.358C255.465 578.778 255.255 579.385 255.255 580.178V584H253.911V576.58H255.199V577.7C255.469 577.317 255.833 577.023 256.291 576.818C256.757 576.613 257.285 576.51 257.873 576.51ZM265.568 584.084C264.961 584.084 264.378 584.005 263.818 583.846C263.258 583.678 262.819 583.468 262.502 583.216L263.062 582.152C263.389 582.385 263.785 582.572 264.252 582.712C264.719 582.852 265.19 582.922 265.666 582.922C266.842 582.922 267.43 582.586 267.43 581.914C267.43 581.69 267.351 581.513 267.192 581.382C267.033 581.251 266.833 581.158 266.59 581.102C266.357 581.037 266.021 580.967 265.582 580.892C264.985 580.799 264.495 580.691 264.112 580.57C263.739 580.449 263.417 580.243 263.146 579.954C262.875 579.665 262.74 579.259 262.74 578.736C262.74 578.064 263.02 577.527 263.58 577.126C264.14 576.715 264.891 576.51 265.834 576.51C266.329 576.51 266.823 576.571 267.318 576.692C267.813 576.813 268.219 576.977 268.536 577.182L267.962 578.246C267.355 577.854 266.641 577.658 265.82 577.658C265.251 577.658 264.817 577.751 264.518 577.938C264.219 578.125 264.07 578.372 264.07 578.68C264.07 578.923 264.154 579.114 264.322 579.254C264.49 579.394 264.695 579.497 264.938 579.562C265.19 579.627 265.54 579.702 265.988 579.786C266.585 579.889 267.066 580.001 267.43 580.122C267.803 580.234 268.121 580.43 268.382 580.71C268.643 580.99 268.774 581.382 268.774 581.886C268.774 582.558 268.485 583.095 267.906 583.496C267.337 583.888 266.557 584.084 265.568 584.084ZM270.79 582.166C271.051 582.166 271.266 582.259 271.434 582.446C271.611 582.623 271.7 582.847 271.7 583.118C271.7 583.258 271.681 583.393 271.644 583.524C271.616 583.655 271.555 583.855 271.462 584.126L270.804 586.072H269.922L270.44 583.986C270.262 583.921 270.118 583.813 270.006 583.664C269.903 583.505 269.852 583.323 269.852 583.118C269.852 582.838 269.94 582.609 270.118 582.432C270.295 582.255 270.519 582.166 270.79 582.166ZM122.336 593.58L119.564 601H118.276L116.134 595.372L113.964 601H112.676L109.918 593.58H111.192L113.348 599.488L115.588 593.58H116.722L118.92 599.516L121.132 593.58H122.336ZM126.673 601.084C125.935 601.084 125.273 600.921 124.685 600.594C124.097 600.267 123.635 599.819 123.299 599.25C122.972 598.671 122.809 598.018 122.809 597.29C122.809 596.562 122.972 595.913 123.299 595.344C123.635 594.765 124.097 594.317 124.685 594C125.273 593.673 125.935 593.51 126.673 593.51C127.41 593.51 128.068 593.673 128.647 594C129.235 594.317 129.692 594.765 130.019 595.344C130.355 595.913 130.523 596.562 130.523 597.29C130.523 598.018 130.355 598.671 130.019 599.25C129.692 599.819 129.235 600.267 128.647 600.594C128.068 600.921 127.41 601.084 126.673 601.084ZM126.673 599.908C127.149 599.908 127.573 599.801 127.947 599.586C128.329 599.362 128.628 599.054 128.843 598.662C129.057 598.261 129.165 597.803 129.165 597.29C129.165 596.777 129.057 596.324 128.843 595.932C128.628 595.531 128.329 595.223 127.947 595.008C127.573 594.793 127.149 594.686 126.673 594.686C126.197 594.686 125.767 594.793 125.385 595.008C125.011 595.223 124.713 595.531 124.489 595.932C124.274 596.324 124.167 596.777 124.167 597.29C124.167 597.803 124.274 598.261 124.489 598.662C124.713 599.054 125.011 599.362 125.385 599.586C125.767 599.801 126.197 599.908 126.673 599.908ZM133.669 594.826C133.903 594.397 134.248 594.07 134.705 593.846C135.163 593.622 135.718 593.51 136.371 593.51V594.812C136.297 594.803 136.194 594.798 136.063 594.798C135.335 594.798 134.761 595.017 134.341 595.456C133.931 595.885 133.725 596.501 133.725 597.304V601H132.381V593.58H133.669V594.826ZM140.912 597.542L139.372 598.97V601H138.028V590.612H139.372V597.276L143.418 593.58H145.042L141.92 596.646L145.35 601H143.698L140.912 597.542ZM150.415 593.58H151.759V601H150.415V593.58ZM151.087 592.152C150.825 592.152 150.606 592.068 150.429 591.9C150.261 591.732 150.177 591.527 150.177 591.284C150.177 591.041 150.261 590.836 150.429 590.668C150.606 590.491 150.825 590.402 151.087 590.402C151.348 590.402 151.563 590.486 151.731 590.654C151.908 590.813 151.997 591.013 151.997 591.256C151.997 591.508 151.908 591.723 151.731 591.9C151.563 592.068 151.348 592.152 151.087 592.152ZM158.497 600.566C158.301 600.734 158.058 600.865 157.769 600.958C157.479 601.042 157.181 601.084 156.873 601.084C156.126 601.084 155.547 600.883 155.137 600.482C154.726 600.081 154.521 599.507 154.521 598.76V594.686H153.261V593.58H154.521V591.956H155.865V593.58H157.993V594.686H155.865V598.704C155.865 599.105 155.963 599.413 156.159 599.628C156.364 599.843 156.653 599.95 157.027 599.95C157.437 599.95 157.787 599.833 158.077 599.6L158.497 600.566ZM166.582 597.332C166.582 597.435 166.572 597.57 166.554 597.738H160.534C160.618 598.391 160.902 598.919 161.388 599.32C161.882 599.712 162.494 599.908 163.222 599.908C164.108 599.908 164.822 599.609 165.364 599.012L166.106 599.88C165.77 600.272 165.35 600.571 164.846 600.776C164.351 600.981 163.796 601.084 163.18 601.084C162.396 601.084 161.7 600.925 161.094 600.608C160.487 600.281 160.016 599.829 159.68 599.25C159.353 598.671 159.19 598.018 159.19 597.29C159.19 596.571 159.348 595.923 159.666 595.344C159.992 594.765 160.436 594.317 160.996 594C161.565 593.673 162.204 593.51 162.914 593.51C163.623 593.51 164.253 593.673 164.804 594C165.364 594.317 165.798 594.765 166.106 595.344C166.423 595.923 166.582 596.585 166.582 597.332ZM162.914 594.644C162.27 594.644 161.728 594.84 161.29 595.232C160.86 595.624 160.608 596.137 160.534 596.772H165.294C165.219 596.147 164.962 595.638 164.524 595.246C164.094 594.845 163.558 594.644 162.914 594.644ZM177.73 593.51C178.663 593.51 179.4 593.781 179.942 594.322C180.492 594.863 180.768 595.666 180.768 596.73V601H179.424V596.884C179.424 596.165 179.256 595.624 178.92 595.26C178.593 594.896 178.122 594.714 177.506 594.714C176.824 594.714 176.283 594.929 175.882 595.358C175.48 595.778 175.28 596.385 175.28 597.178V601H173.936V596.884C173.936 596.165 173.768 595.624 173.432 595.26C173.105 594.896 172.634 594.714 172.018 594.714C171.336 594.714 170.795 594.929 170.394 595.358C169.992 595.778 169.792 596.385 169.792 597.178V601H168.448V593.58H169.736V594.686C170.006 594.303 170.361 594.014 170.8 593.818C171.238 593.613 171.738 593.51 172.298 593.51C172.876 593.51 173.39 593.627 173.838 593.86C174.286 594.093 174.631 594.434 174.874 594.882C175.154 594.453 175.541 594.117 176.036 593.874C176.54 593.631 177.104 593.51 177.73 593.51ZM185.369 601.084C184.762 601.084 184.179 601.005 183.619 600.846C183.059 600.678 182.62 600.468 182.303 600.216L182.863 599.152C183.189 599.385 183.586 599.572 184.053 599.712C184.519 599.852 184.991 599.922 185.467 599.922C186.643 599.922 187.231 599.586 187.231 598.914C187.231 598.69 187.151 598.513 186.993 598.382C186.834 598.251 186.633 598.158 186.391 598.102C186.157 598.037 185.821 597.967 185.383 597.892C184.785 597.799 184.295 597.691 183.913 597.57C183.539 597.449 183.217 597.243 182.947 596.954C182.676 596.665 182.541 596.259 182.541 595.736C182.541 595.064 182.821 594.527 183.381 594.126C183.941 593.715 184.692 593.51 185.635 593.51C186.129 593.51 186.624 593.571 187.119 593.692C187.613 593.813 188.019 593.977 188.337 594.182L187.763 595.246C187.156 594.854 186.442 594.658 185.621 594.658C185.051 594.658 184.617 594.751 184.319 594.938C184.02 595.125 183.871 595.372 183.871 595.68C183.871 595.923 183.955 596.114 184.123 596.254C184.291 596.394 184.496 596.497 184.739 596.562C184.991 596.627 185.341 596.702 185.789 596.786C186.386 596.889 186.867 597.001 187.231 597.122C187.604 597.234 187.921 597.43 188.183 597.71C188.444 597.99 188.575 598.382 188.575 598.886C188.575 599.558 188.285 600.095 187.707 600.496C187.137 600.888 186.358 601.084 185.369 601.084ZM196.716 593.51C197.743 593.51 198.527 593.762 199.068 594.266C199.619 594.77 199.894 595.521 199.894 596.52V601H198.62V600.02C198.396 600.365 198.074 600.631 197.654 600.818C197.244 600.995 196.754 601.084 196.184 601.084C195.354 601.084 194.686 600.883 194.182 600.482C193.688 600.081 193.44 599.553 193.44 598.9C193.44 598.247 193.678 597.724 194.154 597.332C194.63 596.931 195.386 596.73 196.422 596.73H198.55V596.464C198.55 595.885 198.382 595.442 198.046 595.134C197.71 594.826 197.216 594.672 196.562 594.672C196.124 594.672 195.694 594.747 195.274 594.896C194.854 595.036 194.5 595.227 194.21 595.47L193.65 594.462C194.033 594.154 194.49 593.921 195.022 593.762C195.554 593.594 196.119 593.51 196.716 593.51ZM196.408 600.048C196.922 600.048 197.365 599.936 197.738 599.712C198.112 599.479 198.382 599.152 198.55 598.732V597.696H196.478C195.34 597.696 194.77 598.079 194.77 598.844C194.77 599.217 194.915 599.511 195.204 599.726C195.494 599.941 195.895 600.048 196.408 600.048ZM206.343 593.51C207.286 593.51 208.033 593.785 208.583 594.336C209.143 594.877 209.423 595.675 209.423 596.73V601H208.079V596.884C208.079 596.165 207.907 595.624 207.561 595.26C207.216 594.896 206.721 594.714 206.077 594.714C205.349 594.714 204.775 594.929 204.355 595.358C203.935 595.778 203.725 596.385 203.725 597.178V601H202.381V593.58H203.669V594.7C203.94 594.317 204.304 594.023 204.761 593.818C205.228 593.613 205.755 593.51 206.343 593.51ZM218.952 590.612V601H217.664V599.824C217.365 600.235 216.987 600.547 216.53 600.762C216.072 600.977 215.568 601.084 215.018 601.084C214.299 601.084 213.655 600.925 213.086 600.608C212.516 600.291 212.068 599.847 211.742 599.278C211.424 598.699 211.266 598.037 211.266 597.29C211.266 596.543 211.424 595.885 211.742 595.316C212.068 594.747 212.516 594.303 213.086 593.986C213.655 593.669 214.299 593.51 215.018 593.51C215.55 593.51 216.04 593.613 216.488 593.818C216.936 594.014 217.309 594.308 217.608 594.7V590.612H218.952ZM215.13 599.908C215.596 599.908 216.021 599.801 216.404 599.586C216.786 599.362 217.085 599.054 217.3 598.662C217.514 598.261 217.622 597.803 217.622 597.29C217.622 596.777 217.514 596.324 217.3 595.932C217.085 595.531 216.786 595.223 216.404 595.008C216.021 594.793 215.596 594.686 215.13 594.686C214.654 594.686 214.224 594.793 213.842 595.008C213.468 595.223 213.17 595.531 212.946 595.932C212.731 596.324 212.624 596.777 212.624 597.29C212.624 597.803 212.731 598.261 212.946 598.662C213.17 599.054 213.468 599.362 213.842 599.586C214.224 599.801 214.654 599.908 215.13 599.908ZM229.426 600.566C229.23 600.734 228.988 600.865 228.698 600.958C228.409 601.042 228.11 601.084 227.802 601.084C227.056 601.084 226.477 600.883 226.066 600.482C225.656 600.081 225.45 599.507 225.45 598.76V594.686H224.19V593.58H225.45V591.956H226.794V593.58H228.922V594.686H226.794V598.704C226.794 599.105 226.892 599.413 227.088 599.628C227.294 599.843 227.583 599.95 227.956 599.95C228.367 599.95 228.717 599.833 229.006 599.6L229.426 600.566ZM233.983 601.084C233.246 601.084 232.583 600.921 231.995 600.594C231.407 600.267 230.945 599.819 230.609 599.25C230.283 598.671 230.119 598.018 230.119 597.29C230.119 596.562 230.283 595.913 230.609 595.344C230.945 594.765 231.407 594.317 231.995 594C232.583 593.673 233.246 593.51 233.983 593.51C234.721 593.51 235.379 593.673 235.957 594C236.545 594.317 237.003 594.765 237.329 595.344C237.665 595.913 237.833 596.562 237.833 597.29C237.833 598.018 237.665 598.671 237.329 599.25C237.003 599.819 236.545 600.267 235.957 600.594C235.379 600.921 234.721 601.084 233.983 601.084ZM233.983 599.908C234.459 599.908 234.884 599.801 235.257 599.586C235.64 599.362 235.939 599.054 236.153 598.662C236.368 598.261 236.475 597.803 236.475 597.29C236.475 596.777 236.368 596.324 236.153 595.932C235.939 595.531 235.64 595.223 235.257 595.008C234.884 594.793 234.459 594.686 233.983 594.686C233.507 594.686 233.078 594.793 232.695 595.008C232.322 595.223 232.023 595.531 231.799 595.932C231.585 596.324 231.477 596.777 231.477 597.29C231.477 597.803 231.585 598.261 231.799 598.662C232.023 599.054 232.322 599.362 232.695 599.586C233.078 599.801 233.507 599.908 233.983 599.908ZM242.87 601.084C242.133 601.084 241.47 600.921 240.882 600.594C240.294 600.267 239.832 599.819 239.496 599.25C239.169 598.671 239.006 598.018 239.006 597.29C239.006 596.562 239.169 595.913 239.496 595.344C239.832 594.765 240.294 594.317 240.882 594C241.47 593.673 242.133 593.51 242.87 593.51C243.607 593.51 244.265 593.673 244.844 594C245.432 594.317 245.889 594.765 246.216 595.344C246.552 595.913 246.72 596.562 246.72 597.29C246.72 598.018 246.552 598.671 246.216 599.25C245.889 599.819 245.432 600.267 244.844 600.594C244.265 600.921 243.607 601.084 242.87 601.084ZM242.87 599.908C243.346 599.908 243.771 599.801 244.144 599.586C244.527 599.362 244.825 599.054 245.04 598.662C245.255 598.261 245.362 597.803 245.362 597.29C245.362 596.777 245.255 596.324 245.04 595.932C244.825 595.531 244.527 595.223 244.144 595.008C243.771 594.793 243.346 594.686 242.87 594.686C242.394 594.686 241.965 594.793 241.582 595.008C241.209 595.223 240.91 595.531 240.686 595.932C240.471 596.324 240.364 596.777 240.364 597.29C240.364 597.803 240.471 598.261 240.686 598.662C240.91 599.054 241.209 599.362 241.582 599.586C241.965 599.801 242.394 599.908 242.87 599.908ZM248.579 590.612H249.923V601H248.579V590.612ZM254.617 601.084C254.01 601.084 253.427 601.005 252.867 600.846C252.307 600.678 251.868 600.468 251.551 600.216L252.111 599.152C252.438 599.385 252.834 599.572 253.301 599.712C253.768 599.852 254.239 599.922 254.715 599.922C255.891 599.922 256.479 599.586 256.479 598.914C256.479 598.69 256.4 598.513 256.241 598.382C256.082 598.251 255.882 598.158 255.639 598.102C255.406 598.037 255.07 597.967 254.631 597.892C254.034 597.799 253.544 597.691 253.161 597.57C252.788 597.449 252.466 597.243 252.195 596.954C251.924 596.665 251.789 596.259 251.789 595.736C251.789 595.064 252.069 594.527 252.629 594.126C253.189 593.715 253.94 593.51 254.883 593.51C255.378 593.51 255.872 593.571 256.367 593.692C256.862 593.813 257.268 593.977 257.585 594.182L257.011 595.246C256.404 594.854 255.69 594.658 254.869 594.658C254.3 594.658 253.866 594.751 253.567 594.938C253.268 595.125 253.119 595.372 253.119 595.68C253.119 595.923 253.203 596.114 253.371 596.254C253.539 596.394 253.744 596.497 253.987 596.562C254.239 596.627 254.589 596.702 255.037 596.786C255.634 596.889 256.115 597.001 256.479 597.122C256.852 597.234 257.17 597.43 257.431 597.71C257.692 597.99 257.823 598.382 257.823 598.886C257.823 599.558 257.534 600.095 256.955 600.496C256.386 600.888 255.606 601.084 254.617 601.084ZM134.931 610.58H136.275V618H134.931V610.58ZM135.603 609.152C135.342 609.152 135.123 609.068 134.945 608.9C134.777 608.732 134.693 608.527 134.693 608.284C134.693 608.041 134.777 607.836 134.945 607.668C135.123 607.491 135.342 607.402 135.603 607.402C135.865 607.402 136.079 607.486 136.247 607.654C136.425 607.813 136.513 608.013 136.513 608.256C136.513 608.508 136.425 608.723 136.247 608.9C136.079 609.068 135.865 609.152 135.603 609.152ZM142.803 610.51C143.746 610.51 144.493 610.785 145.043 611.336C145.603 611.877 145.883 612.675 145.883 613.73V618H144.539V613.884C144.539 613.165 144.367 612.624 144.021 612.26C143.676 611.896 143.181 611.714 142.537 611.714C141.809 611.714 141.235 611.929 140.815 612.358C140.395 612.778 140.185 613.385 140.185 614.178V618H138.841V610.58H140.129V611.7C140.4 611.317 140.764 611.023 141.221 610.818C141.688 610.613 142.215 610.51 142.803 610.51ZM152.543 617.566C152.347 617.734 152.104 617.865 151.815 617.958C151.525 618.042 151.227 618.084 150.919 618.084C150.172 618.084 149.593 617.883 149.183 617.482C148.772 617.081 148.567 616.507 148.567 615.76V611.686H147.307V610.58H148.567V608.956H149.911V610.58H152.039V611.686H149.911V615.704C149.911 616.105 150.009 616.413 150.205 616.628C150.41 616.843 150.699 616.95 151.073 616.95C151.483 616.95 151.833 616.833 152.123 616.6L152.543 617.566ZM157.099 618.084C156.362 618.084 155.699 617.921 155.111 617.594C154.523 617.267 154.061 616.819 153.725 616.25C153.399 615.671 153.235 615.018 153.235 614.29C153.235 613.562 153.399 612.913 153.725 612.344C154.061 611.765 154.523 611.317 155.111 611C155.699 610.673 156.362 610.51 157.099 610.51C157.837 610.51 158.495 610.673 159.073 611C159.661 611.317 160.119 611.765 160.445 612.344C160.781 612.913 160.949 613.562 160.949 614.29C160.949 615.018 160.781 615.671 160.445 616.25C160.119 616.819 159.661 617.267 159.073 617.594C158.495 617.921 157.837 618.084 157.099 618.084ZM157.099 616.908C157.575 616.908 158 616.801 158.373 616.586C158.756 616.362 159.055 616.054 159.269 615.662C159.484 615.261 159.591 614.803 159.591 614.29C159.591 613.777 159.484 613.324 159.269 612.932C159.055 612.531 158.756 612.223 158.373 612.008C158 611.793 157.575 611.686 157.099 611.686C156.623 611.686 156.194 611.793 155.811 612.008C155.438 612.223 155.139 612.531 154.915 612.932C154.701 613.324 154.593 613.777 154.593 614.29C154.593 614.803 154.701 615.261 154.915 615.662C155.139 616.054 155.438 616.362 155.811 616.586C156.194 616.801 156.623 616.908 157.099 616.908ZM169.746 618.084C169.009 618.084 168.346 617.921 167.758 617.594C167.17 617.267 166.708 616.819 166.372 616.25C166.045 615.671 165.882 615.018 165.882 614.29C165.882 613.562 166.045 612.913 166.372 612.344C166.708 611.765 167.17 611.317 167.758 611C168.346 610.673 169.009 610.51 169.746 610.51C170.483 610.51 171.141 610.673 171.72 611C172.308 611.317 172.765 611.765 173.092 612.344C173.428 612.913 173.596 613.562 173.596 614.29C173.596 615.018 173.428 615.671 173.092 616.25C172.765 616.819 172.308 617.267 171.72 617.594C171.141 617.921 170.483 618.084 169.746 618.084ZM169.746 616.908C170.222 616.908 170.647 616.801 171.02 616.586C171.403 616.362 171.701 616.054 171.916 615.662C172.131 615.261 172.238 614.803 172.238 614.29C172.238 613.777 172.131 613.324 171.916 612.932C171.701 612.531 171.403 612.223 171.02 612.008C170.647 611.793 170.222 611.686 169.746 611.686C169.27 611.686 168.841 611.793 168.458 612.008C168.085 612.223 167.786 612.531 167.562 612.932C167.347 613.324 167.24 613.777 167.24 614.29C167.24 614.803 167.347 615.261 167.562 615.662C167.786 616.054 168.085 616.362 168.458 616.586C168.841 616.801 169.27 616.908 169.746 616.908ZM179.417 610.51C180.359 610.51 181.106 610.785 181.657 611.336C182.217 611.877 182.497 612.675 182.497 613.73V618H181.153V613.884C181.153 613.165 180.98 612.624 180.635 612.26C180.289 611.896 179.795 611.714 179.151 611.714C178.423 611.714 177.849 611.929 177.429 612.358C177.009 612.778 176.799 613.385 176.799 614.178V618H175.455V610.58H176.743V611.7C177.013 611.317 177.377 611.023 177.835 610.818C178.301 610.613 178.829 610.51 179.417 610.51ZM191.731 614.332C191.731 614.435 191.722 614.57 191.703 614.738H185.683C185.767 615.391 186.052 615.919 186.537 616.32C187.032 616.712 187.643 616.908 188.371 616.908C189.258 616.908 189.972 616.609 190.513 616.012L191.255 616.88C190.919 617.272 190.499 617.571 189.995 617.776C189.5 617.981 188.945 618.084 188.329 618.084C187.545 618.084 186.85 617.925 186.243 617.608C185.636 617.281 185.165 616.829 184.829 616.25C184.502 615.671 184.339 615.018 184.339 614.29C184.339 613.571 184.498 612.923 184.815 612.344C185.142 611.765 185.585 611.317 186.145 611C186.714 610.673 187.354 610.51 188.063 610.51C188.772 610.51 189.402 610.673 189.953 611C190.513 611.317 190.947 611.765 191.255 612.344C191.572 612.923 191.731 613.585 191.731 614.332ZM188.063 611.644C187.419 611.644 186.878 611.84 186.439 612.232C186.01 612.624 185.758 613.137 185.683 613.772H190.443C190.368 613.147 190.112 612.638 189.673 612.246C189.244 611.845 188.707 611.644 188.063 611.644ZM201.291 610.51C202.01 610.51 202.654 610.669 203.223 610.986C203.792 611.303 204.236 611.747 204.553 612.316C204.88 612.885 205.043 613.543 205.043 614.29C205.043 615.037 204.88 615.699 204.553 616.278C204.236 616.847 203.792 617.291 203.223 617.608C202.654 617.925 202.01 618.084 201.291 618.084C200.759 618.084 200.269 617.981 199.821 617.776C199.382 617.571 199.009 617.272 198.701 616.88V620.716H197.357V610.58H198.645V611.756C198.944 611.345 199.322 611.037 199.779 610.832C200.236 610.617 200.74 610.51 201.291 610.51ZM201.179 616.908C201.655 616.908 202.08 616.801 202.453 616.586C202.836 616.362 203.134 616.054 203.349 615.662C203.573 615.261 203.685 614.803 203.685 614.29C203.685 613.777 203.573 613.324 203.349 612.932C203.134 612.531 202.836 612.223 202.453 612.008C202.08 611.793 201.655 611.686 201.179 611.686C200.712 611.686 200.288 611.798 199.905 612.022C199.532 612.237 199.233 612.54 199.009 612.932C198.794 613.324 198.687 613.777 198.687 614.29C198.687 614.803 198.794 615.261 199.009 615.662C199.224 616.054 199.522 616.362 199.905 616.586C200.288 616.801 200.712 616.908 201.179 616.908ZM206.9 607.612H208.244V618H206.9V607.612ZM213.512 610.51C214.539 610.51 215.323 610.762 215.864 611.266C216.415 611.77 216.69 612.521 216.69 613.52V618H215.416V617.02C215.192 617.365 214.87 617.631 214.45 617.818C214.039 617.995 213.549 618.084 212.98 618.084C212.149 618.084 211.482 617.883 210.978 617.482C210.483 617.081 210.236 616.553 210.236 615.9C210.236 615.247 210.474 614.724 210.95 614.332C211.426 613.931 212.182 613.73 213.218 613.73H215.346V613.464C215.346 612.885 215.178 612.442 214.842 612.134C214.506 611.826 214.011 611.672 213.358 611.672C212.919 611.672 212.49 611.747 212.07 611.896C211.65 612.036 211.295 612.227 211.006 612.47L210.446 611.462C210.829 611.154 211.286 610.921 211.818 610.762C212.35 610.594 212.915 610.51 213.512 610.51ZM213.204 617.048C213.717 617.048 214.161 616.936 214.534 616.712C214.907 616.479 215.178 616.152 215.346 615.732V614.696H213.274C212.135 614.696 211.566 615.079 211.566 615.844C211.566 616.217 211.711 616.511 212 616.726C212.289 616.941 212.691 617.048 213.204 617.048ZM222.452 618.084C221.696 618.084 221.02 617.921 220.422 617.594C219.834 617.267 219.372 616.819 219.036 616.25C218.7 615.671 218.532 615.018 218.532 614.29C218.532 613.562 218.7 612.913 219.036 612.344C219.372 611.765 219.834 611.317 220.422 611C221.02 610.673 221.696 610.51 222.452 610.51C223.124 610.51 223.722 610.645 224.244 610.916C224.776 611.187 225.187 611.579 225.476 612.092L224.454 612.75C224.221 612.395 223.932 612.129 223.586 611.952C223.241 611.775 222.858 611.686 222.438 611.686C221.953 611.686 221.514 611.793 221.122 612.008C220.74 612.223 220.436 612.531 220.212 612.932C219.998 613.324 219.89 613.777 219.89 614.29C219.89 614.813 219.998 615.275 220.212 615.676C220.436 616.068 220.74 616.371 221.122 616.586C221.514 616.801 221.953 616.908 222.438 616.908C222.858 616.908 223.241 616.819 223.586 616.642C223.932 616.465 224.221 616.199 224.454 615.844L225.476 616.488C225.187 617.001 224.776 617.398 224.244 617.678C223.722 617.949 223.124 618.084 222.452 618.084ZM233.813 614.332C233.813 614.435 233.804 614.57 233.785 614.738H227.765C227.849 615.391 228.134 615.919 228.619 616.32C229.114 616.712 229.725 616.908 230.453 616.908C231.34 616.908 232.054 616.609 232.595 616.012L233.337 616.88C233.001 617.272 232.581 617.571 232.077 617.776C231.582 617.981 231.027 618.084 230.411 618.084C229.627 618.084 228.932 617.925 228.325 617.608C227.718 617.281 227.247 616.829 226.911 616.25C226.584 615.671 226.421 615.018 226.421 614.29C226.421 613.571 226.58 612.923 226.897 612.344C227.224 611.765 227.667 611.317 228.227 611C228.796 610.673 229.436 610.51 230.145 610.51C230.854 610.51 231.484 610.673 232.035 611C232.595 611.317 233.029 611.765 233.337 612.344C233.654 612.923 233.813 613.585 233.813 614.332ZM230.145 611.644C229.501 611.644 228.96 611.84 228.521 612.232C228.092 612.624 227.84 613.137 227.765 613.772H232.525C232.45 613.147 232.194 612.638 231.755 612.246C231.326 611.845 230.789 611.644 230.145 611.644Z" fill="#C5BBC8"></path><circle cx="186" cy="393" r="118" stroke="#2E4BB1" stroke-opacity="0.3" stroke-width="2" stroke-dasharray="5 2"></circle><circle cx="186" cy="393" r="87" stroke="#2E4BB1" stroke-opacity="0.3" stroke-width="2" stroke-dasharray="5 2"></circle><path d="M169.174 431C181.39 464.168 164.405 500.959 131.237 513.175C98.0684 525.39 61.2774 508.405 49.0617 475.237C36.8459 442.068 53.8313 405.278 86.9995 393.062C120.168 380.846 156.959 397.831 169.174 431Z" fill="#E4D4E4"></path><mask id="mask0_3_381" style="mask-type:alpha" maskUnits="userSpaceOnUse" x="45" y="389" width="129" height="129"><path d="M169.174 431C181.39 464.168 164.405 500.959 131.237 513.175C98.0684 525.39 61.2774 508.405 49.0617 475.237C36.8459 442.068 53.8313 405.278 86.9995 393.062C120.168 380.846 156.959 397.831 169.174 431Z" fill="#E3D1E3"></path></mask><g mask="url(#mask0_3_381)"><path d="M97.0015 446.026C102.83 453.458 102.79 469.064 100.694 475.494C111.517 479.89 125.126 481.766 133.738 478.817L130.42 464.029C126.346 457.246 124.548 449.62 124.126 445.348L97.0015 446.026Z" fill="#FCCBBB"></path><path d="M124.126 445.348L97.0015 446.026C103.03 450.349 117.472 458.589 127.01 456.959C125.279 452.433 124.404 448.162 124.126 445.348Z" fill="#020101"></path><path d="M116.196 402.983C116.87 403.342 158.071 455.132 102.905 448.248C50.7332 431.192 90.0274 410.965 116.196 402.983Z" fill="#FCCBBB"></path><path d="M99.9542 436.728C93.9317 431.791 90.1502 431.319 88.6555 436.01C87.2288 442.043 95.2969 443.789 100.092 445.971L101.36 456.649C92.7616 459.032 78.7151 457.53 69.3681 443.799C56.0027 416.219 78.912 391.956 107.564 393.196C123.125 393.869 123.548 404.88 121.814 410.302L102.704 416.131C106.284 429.717 101.39 434.032 99.9542 436.728Z" fill="#001F52"></path><path d="M99.9545 436.728C93.932 431.79 90.1505 431.319 88.6557 436.01C87.5575 440.654 92.0856 442.758 96.4157 444.476C98.6412 445.358 100.427 448.326 100.593 450.658C91.6424 450.201 79.7999 446.431 84.0036 433.557C88.1002 422.524 97.2282 428.46 99.1267 431.743C99.153 424.797 99.8154 420.948 97.1769 414.388C102.689 412.933 132.897 407.835 107.564 393.196C123.125 393.869 123.548 404.88 121.815 410.302L102.705 416.13C106.284 429.717 101.39 434.032 99.9545 436.728Z" fill="#00112C"></path><path d="M135.643 469.596C88.5247 443.217 67.2381 505.723 65.6104 513.803C45.9529 611.386 115.892 735.027 142.475 725.237C138.533 675.475 228.908 622.838 186.859 583.659C144.81 544.479 168.668 521.296 135.643 469.596Z" fill="#CA5230"></path><path d="M135.643 469.596C125.655 464.004 116.828 462.407 109.102 463.438C125.092 496.027 158.003 558.305 161.733 546.701C154.526 524.897 157.179 503.31 135.643 469.596Z" fill="#B34020"></path><path d="M135.643 469.596C88.5247 443.217 67.2381 505.723 65.6104 513.803C45.9529 611.386 115.892 735.027 142.475 725.237C138.533 675.475 228.908 622.838 186.859 583.659" stroke="black"></path><path d="M101.643 458.525C98.7896 460.152 98.6916 462.49 98.7093 463.059L102.616 460.779C101.376 460.925 101.83 459.032 101.643 458.525Z" fill="#020101"></path><path d="M135.683 470.509C120.542 464.738 99.8234 466.082 99.8234 466.082C98.7622 464.765 97.8291 462.232 99.1635 461.165C107.964 458.499 137.032 459.302 137.032 459.302L135.683 470.509Z" fill="white"></path><path d="M135.683 470.509L137.032 459.302C137.032 459.302 107.964 458.499 99.1635 461.165C97.8291 462.232 98.7622 464.765 99.8234 466.082" stroke="black" stroke-width="0.5"></path></g><path d="M168.705 431.172C180.826 464.081 163.973 500.585 131.064 512.705C98.155 524.826 61.6514 507.973 49.5311 475.064C37.4108 442.155 54.2634 405.651 87.1725 393.531C120.082 381.411 156.585 398.263 168.705 431.172Z" stroke="#FE9477" stroke-opacity="0.33"></path><path d="M330.588 328.588C330.588 363.934 301.934 392.588 266.588 392.588C231.242 392.588 202.588 363.934 202.588 328.588C202.588 293.242 231.242 264.588 266.588 264.588C301.934 264.588 330.588 293.242 330.588 328.588Z" fill="#DFCDDF"></path><mask id="mask1_3_381" style="mask-type:alpha" maskUnits="userSpaceOnUse" x="202" y="264" width="129" height="129"><path d="M330.588 328.588C330.588 363.934 301.934 392.588 266.588 392.588C231.242 392.588 202.588 363.934 202.588 328.588C202.588 293.242 231.242 264.588 266.588 264.588C301.934 264.588 330.588 293.242 330.588 328.588Z" fill="#C4C4C4"></path></mask><g mask="url(#mask1_3_381)"><path d="M248.278 328.063C249.523 347.057 232.06 349.73 223.367 349.081C244.386 398.902 290.704 373.992 290.704 366.986C271.087 361.069 268.128 337.923 269.685 326.895C265.923 327.284 256.374 328.063 248.278 328.063Z" fill="#FCCBBB"></path><path d="M269.686 326.895C265.924 327.284 256.375 328.063 248.279 328.063C248.728 334.912 246.744 339.639 243.616 342.853C250.879 342.205 266.261 338.105 269.686 326.895Z" fill="#EE987C"></path><path d="M224.698 352.064C224.244 351.101 223.801 350.107 223.368 349.081C228.199 349.442 235.74 348.776 241.272 344.852C245.931 348.046 258.522 352.954 271.614 347.037C274.415 355.627 280.147 363.802 290.704 366.986C296.932 366.986 307.831 366.986 320.675 369.321C316.653 394.751 309.465 448.879 312.891 461.958C314.152 466.775 315.38 470.333 316.484 473.533C319.128 481.194 320.675 484.665 320.675 500.588C275.784 500.588 230.893 500.588 186.002 500.588C190.037 499.42 201.761 474.958 203.926 456.898C204.952 448.334 203.926 434.711 192.619 423.035C195.106 418.415 197.574 413.995 199.982 409.683C210.415 390.995 219.727 374.314 224.698 352.064Z" fill="#CA5230"></path><path d="M320.674 369.321C316.652 394.751 309.465 448.879 312.89 461.957C316.939 477.417 320.639 479.91 321.03 499.226C307.937 499.226 278.093 492.064 260.344 464.974C262.29 462.638 263.458 460.562 264.626 459.135L253.727 451.351C248.148 456.281 236.212 456.021 233.487 444.734C229.595 430.332 243.996 441.62 253.727 426.051C258.398 426.829 260.733 432.538 261.901 433.446C270.723 433.965 290.937 435.237 294.985 439.285C293.817 431.5 285.255 396.185 312.111 374.283C314.836 372.061 317.95 370.78 320.674 369.321Z" fill="#A33618"></path><path d="M231.964 372.509C237.345 366.477 237.781 366.759 233.271 373.354C230.29 377.65 230.726 377.932 234.579 374.199C238.462 370.486 238.898 370.767 235.887 375.044C230.116 383.411 230.551 383.692 237.194 375.889C243.755 368.033 244.191 368.315 238.502 376.734C234.481 382.631 234.916 382.912 239.809 377.579C244.728 372.263 245.164 372.545 241.117 378.424C238.96 381.47 239.396 381.752 242.425 379.269C245.495 376.814 245.931 377.095 243.732 380.115C237.644 388.8 238.08 389.082 245.04 380.96" stroke="white" stroke-opacity="0.76" stroke-width="0.5"></path><path d="M275.557 362.389C280.939 356.357 281.374 356.639 276.865 363.234C273.884 367.53 274.32 367.812 278.173 364.079C282.056 360.366 282.491 360.647 279.48 364.924C273.709 373.291 274.145 373.572 280.788 365.769C287.348 357.913 287.784 358.195 282.095 366.614C278.074 372.511 278.51 372.792 283.403 367.459C288.322 362.143 288.758 362.425 284.711 368.304C282.554 371.351 282.99 371.632 286.018 369.15C289.088 366.694 289.524 366.976 287.326 369.995C281.237 378.68 281.673 378.962 288.633 370.84" stroke="white" stroke-opacity="0.76" stroke-width="0.5"></path><path d="M224.697 352.064C224.243 351.101 223.8 350.107 223.367 349.081C228.199 349.442 235.74 348.776 241.272 344.852C239.403 348.709 229.443 351.267 224.697 352.064Z" fill="#A33618"></path><path d="M271.613 347.037C274.414 355.627 280.146 363.802 290.704 366.986H290.705C296.932 366.986 307.83 366.986 320.674 369.321C320.305 371.659 319.919 375.018 319.507 377.786C295.764 364.942 284.865 379.733 268.518 348.245C269.544 347.906 270.577 347.506 271.613 347.037Z" fill="#A33618"></path><path d="M225.313 349.164C219.466 378.132 206.348 397.537 192.618 423.035C203.925 434.711 204.951 448.334 203.925 456.898C203.719 458.617 203.423 460.41 203.052 462.249C208.966 459.914 215.583 453.297 216.361 448.237C236.212 450.183 236.601 423.326 228.427 429.943C220.253 436.56 215.193 430.332 215.193 428.775C215.193 420.602 212.469 421.769 209.744 426.44C208.706 425.791 201.57 421.769 196.121 421.769C209.355 405.422 229.595 366.888 225.313 349.164Z" fill="#A33618"></path><path d="M236.603 347.303C238.241 346.683 239.826 345.879 241.273 344.852C243.777 346.569 248.573 348.781 254.507 349.541C259.612 350.194 265.56 349.773 271.615 347.037C272.536 349.861 273.773 352.64 275.394 355.211C264.703 360.115 257.015 353.474 254.507 349.541C244.231 357.148 238.289 351.219 236.603 347.303Z" fill="white"></path><path d="M236.602 347.303C238.288 351.219 244.23 357.148 254.506 349.541C257.014 353.474 264.702 360.115 275.393 355.211" stroke="black"></path><path d="M296.542 440.939C294.674 390.184 311.852 372.046 320.674 369.321C347.531 387.225 352.592 474.704 342.083 491.441C331.574 508.178 284.097 488.088 265.722 465.071L279.673 437.047C286.63 438.083 292.869 439.511 296.542 440.939Z" fill="#CA5230"></path><path d="M312.891 374.552C315.723 371.658 318.461 370.004 320.674 369.321C343.443 384.5 350.546 449.684 345.778 479.375C348.734 432.045 325.085 389.772 312.891 374.552Z" fill="#A33618"></path><path d="M312.924 380.293C318.305 374.262 318.741 374.544 314.232 381.138C311.25 385.435 311.686 385.716 315.539 381.984C319.422 378.27 319.858 378.552 316.847 382.829C311.076 391.195 311.512 391.477 318.154 383.674C324.715 375.817 325.151 376.099 319.462 384.519C315.441 390.415 315.877 390.697 320.77 385.364C325.688 380.048 326.124 380.329 322.077 386.209C319.92 389.255 320.356 389.537 323.385 387.054C326.455 384.598 326.891 384.88 324.692 387.899C318.604 396.585 319.04 396.867 326 388.744" stroke="white" stroke-opacity="0.76" stroke-width="0.5"></path><path d="M225.314 349.164C219.466 378.132 206.348 397.537 192.618 423.034C196.162 423.034 200.397 424.516 204.295 425.98C203.906 432.012 204.84 445.28 211.691 450.097C199.235 464.974 157.588 485.742 157.588 447.556C157.588 422.157 182.888 358.714 225.314 349.164Z" fill="#CA5230"></path><path d="M198.49 369.395C203.871 363.363 204.307 363.645 199.798 370.24C196.817 374.536 197.253 374.818 201.105 371.085C204.988 367.372 205.424 367.653 202.413 371.93C196.642 380.297 197.078 380.578 203.721 372.775C210.281 364.919 210.717 365.201 205.028 373.62C201.007 379.517 201.443 379.799 206.336 374.465C211.255 369.149 211.691 369.431 207.643 375.311C205.487 378.357 205.922 378.638 208.951 376.156C212.021 373.7 212.457 373.982 210.259 377.001C204.17 385.687 204.606 385.968 211.566 377.846" stroke="white" stroke-opacity="0.76" stroke-width="0.5"></path><path d="M248.278 328.063C249.524 347.057 232.06 349.73 223.368 349.081C221.681 347.265 220.487 342.075 229.206 335.847C231.541 333.512 236.212 329.23 232.32 308.99C228.428 288.751 236.601 286.415 239.326 285.637C239.326 282.523 255.674 266.565 269.686 268.802C283.698 271.04 293.04 291.378 300.824 308.99C308.609 326.603 366.993 347.427 339.358 403.865C320.286 378.954 328.459 363.093 290.704 366.986C271.087 361.069 268.129 337.923 269.686 326.895C265.923 327.284 256.374 328.063 248.278 328.063Z" fill="#001F52"></path><path d="M248.278 328.063C249.523 347.057 232.06 349.73 223.367 349.081C231.282 344.8 246.02 332.967 241.661 319.889C256.296 319.889 266.442 318.073 269.685 317.164C273.967 330.398 288.602 356.321 312.89 354.141C337.178 351.961 344.11 367.764 344.54 375.938C345.253 383.848 342.222 395.748 340.525 405.811C321.453 380.9 324.956 371.169 290.704 366.986C271.087 361.069 268.128 337.923 269.685 326.895C265.923 327.284 256.374 328.063 248.278 328.063Z" fill="#00112C"></path><path d="M243.997 291.864C240.884 298.481 228.428 344.021 269.686 326.895C269.686 287.583 250.614 287.583 243.997 291.864Z" fill="#FCCBBB"></path><path d="M243.997 291.864C250.614 287.583 269.686 287.583 269.686 326.895C265.949 297.703 251.003 291.378 243.997 291.864Z" fill="#EE987C"></path></g><path d="M325.762 306.229C337.882 339.138 321.03 375.642 288.121 387.762C255.212 399.882 218.708 383.03 206.588 350.121C194.467 317.212 211.32 280.708 244.229 268.588C277.138 256.467 313.642 273.32 325.762 306.229Z" stroke="#FE9477" stroke-opacity="0.33"></path><circle cx="261" cy="484" r="27" fill="#001F52" fill-opacity="0.88"></circle><path d="M272.232 470.766L272.242 471.009L272.427 498.264C272.444 500.967 269.363 502.446 267.281 500.846L267.077 500.675L257.711 492.256L245.422 489.036C242.81 488.351 242.175 484.971 244.255 483.372L244.472 483.218L267.277 468.32C269.34 466.977 272.046 468.368 272.232 470.766ZM268.756 470.361L268.646 470.419L245.841 485.316C245.367 485.626 245.442 486.334 245.928 486.565L246.058 486.612L257.679 489.656L263.493 478.667C263.788 478.111 264.441 477.867 265.017 478.071L265.187 478.145C265.743 478.44 265.986 479.093 265.783 479.669L265.708 479.839L259.886 490.843L268.752 498.812C269.174 499.191 269.816 498.945 269.91 498.418L269.921 498.281L269.736 471.025C269.733 470.499 269.202 470.171 268.756 470.361Z" fill="white"></path><circle cx="109" cy="306" r="23" fill="#001F52" fill-opacity="0.88"></circle><path d="M115.335 294C117.455 294.023 119.472 294.877 120.918 296.365C122.363 297.852 123.11 299.842 122.987 301.812L122.985 310.128C123.11 312.158 122.363 314.148 120.918 315.635C119.472 317.123 117.455 317.977 115.324 318H102.639C98.2013 318 95 314.585 95 310.188V301.812C95 297.415 98.2013 294 102.639 294H115.335ZM115.312 296.038H102.639C99.4279 296.038 97.1244 298.495 97.1244 301.812V310.188C97.1244 313.505 99.4279 315.962 102.639 315.962H115.312C116.85 315.946 118.315 315.325 119.364 314.246C120.413 313.166 120.955 311.722 120.862 310.188L120.864 301.752C120.955 300.278 120.413 298.834 119.364 297.754C118.315 296.675 116.85 296.054 115.312 296.038ZM117.434 301.518C117.767 301.917 117.736 302.483 117.383 302.847L117.268 302.95L111.518 307.365C110.122 308.409 108.192 308.461 106.736 307.517L106.51 307.359L100.722 302.953C100.263 302.603 100.186 301.962 100.55 301.521C100.882 301.12 101.464 301.023 101.913 301.271L102.043 301.356L107.824 305.757C108.472 306.242 109.36 306.279 110.037 305.876L110.202 305.766L115.941 301.359C116.399 301.007 117.067 301.078 117.434 301.518Z" fill="white"></path></svg>