<svg xmlns="http://www.w3.org/2000/svg" width="885" height="649" viewBox="0 0 885 649" fill="none"><path d="M832.046 647.732H19.3091" stroke="black"></path><path d="M71.97 576.64H100.056V648.61H71.97V576.64Z" fill="#475393"></path><path d="M751.299 576.64H779.385V648.61H751.299V576.64Z" fill="#475393"></path><path d="M8.77661 576.64H875.93V587.172H8.77661V576.64Z" fill="#475393"></path><path d="M0 36.5321C0 17.7939 15.1607 2.58794 33.8988 2.53217L850.606 0.101492C869.423 0.0454882 884.707 15.2841 884.707 34.1013V534.842C884.707 553.58 869.547 568.786 850.809 568.841L34.1012 571.272C15.284 571.328 0 556.089 0 537.272V36.5321Z" fill="#6EBF8F"></path><mask id="path-4-inside-1_3_518" fill="white"><rect x="693.372" y="80.7472" width="75.481" height="15.7983" rx="0.4"></rect></mask><rect x="693.372" y="80.7472" width="75.481" height="15.7983" rx="0.4" stroke="white" stroke-width="2" mask="url(#path-4-inside-1_3_518)"></rect><mask id="path-5-inside-2_3_518" fill="white"><rect x="749.544" y="107.078" width="75.481" height="15.7983" rx="0.4"></rect></mask><rect x="749.544" y="107.078" width="75.481" height="15.7983" rx="0.4" stroke="white" stroke-width="2" mask="url(#path-5-inside-2_3_518)"></rect><mask id="path-6-inside-3_3_518" fill="white"><rect x="672.307" y="138.674" width="128.142" height="15.7983" rx="0.4"></rect></mask><rect x="672.307" y="138.674" width="128.142" height="15.7983" rx="0.4" stroke="white" stroke-width="2" mask="url(#path-6-inside-3_3_518)"></rect><mask id="path-7-inside-4_3_518" fill="white"><rect x="782.896" y="78.9918" width="15.7983" height="12.2876" rx="0.4"></rect></mask><rect x="782.896" y="78.9918" width="15.7983" height="12.2876" rx="0.4" stroke="white" stroke-width="2" mask="url(#path-7-inside-4_3_518)"></rect><path d="M45.6396 391.448V535.388H272.96" stroke="white"></path><mask id="path-9-inside-5_3_518" fill="white"><rect x="82.5022" y="431.822" width="131.653" height="15.7983" rx="0.5"></rect></mask><rect x="82.5022" y="431.822" width="131.653" height="15.7983" rx="0.5" stroke="white" stroke-width="2" mask="url(#path-9-inside-5_3_518)"></rect><mask id="path-10-inside-6_3_518" fill="white"><rect x="82.5022" y="461.663" width="73.7256" height="15.7983" rx="0.5"></rect></mask><rect x="82.5022" y="461.663" width="73.7256" height="15.7983" rx="0.5" stroke="white" stroke-width="2" mask="url(#path-10-inside-6_3_518)"></rect><mask id="path-11-inside-7_3_518" fill="white"><rect x="82.5022" y="493.26" width="91.2793" height="15.7983" rx="0.5"></rect></mask><rect x="82.5022" y="493.26" width="91.2793" height="15.7983" rx="0.5" stroke="white" stroke-width="2" mask="url(#path-11-inside-7_3_518)"></rect><path d="M251.83 490.722L232.521 519.686L231.061 518.712L250.37 489.749L251.83 490.722Z" fill="white"></path><path fill-rule="evenodd" clip-rule="evenodd" d="M248.552 522.498C251.023 524.032 254.684 522.605 256.73 519.31C258.775 516.016 258.431 512.101 255.96 510.567C253.489 509.033 249.828 510.46 247.782 513.755C245.737 517.049 246.081 520.963 248.552 522.498ZM252.163 521.079C253.256 520.653 254.397 519.74 255.239 518.384C256.08 517.028 256.393 515.601 256.29 514.432C256.187 513.264 255.695 512.469 255.034 512.058C254.373 511.648 253.441 511.56 252.349 511.986C251.256 512.412 250.115 513.325 249.273 514.681C248.432 516.036 248.119 517.463 248.222 518.632C248.325 519.8 248.817 520.596 249.478 521.006C250.139 521.417 251.071 521.505 252.163 521.079Z" fill="white"></path><path fill-rule="evenodd" clip-rule="evenodd" d="M236.825 499.206C235.109 501.97 232.037 503.167 229.964 501.88C227.891 500.593 227.601 497.309 229.318 494.544C231.034 491.78 234.106 490.583 236.179 491.87C238.252 493.157 238.542 496.441 236.825 499.206ZM235.334 498.28C234.657 499.37 233.746 500.093 232.891 500.427C232.037 500.76 231.352 500.676 230.89 500.389C230.428 500.102 230.049 499.526 229.968 498.612C229.888 497.698 230.132 496.561 230.809 495.47C231.486 494.38 232.397 493.657 233.252 493.323C234.106 492.99 234.791 493.074 235.253 493.361C235.715 493.648 236.094 494.224 236.175 495.138C236.255 496.052 236.011 497.189 235.334 498.28Z" fill="white"></path><circle cx="781.14" cy="438.843" r="36.3628" stroke="white"></circle><mask id="path-14-inside-8_3_518" fill="white"><path d="M818.003 438.843C818.003 434.002 817.05 429.209 815.197 424.736C813.345 420.264 810.629 416.2 807.206 412.777C803.783 409.354 799.72 406.639 795.247 404.786C790.775 402.934 785.981 401.98 781.14 401.98V438.843H818.003Z"></path></mask><path d="M818.003 438.843C818.003 434.002 817.05 429.209 815.197 424.736C813.345 420.264 810.629 416.2 807.206 412.777C803.783 409.354 799.72 406.639 795.247 404.786C790.775 402.934 785.981 401.98 781.14 401.98V438.843H818.003Z" stroke="white" stroke-width="2" mask="url(#path-14-inside-8_3_518)"></path><rect x="173.781" y="282.615" width="50.9058" height="50.9058" rx="5" fill="#83C4A3"></rect><path d="M184.314 307.19L190.957 322.137C191.119 322.501 191.619 322.543 191.834 322.207C198.183 312.304 211.125 293.443 215.911 291.392" stroke="white" stroke-width="1.5" stroke-linecap="round"></path><path d="M303.188 144.034L303.075 143.441H303.679H380.671C381.499 143.441 382.171 142.769 382.171 141.941V82.7472C382.171 81.9188 381.499 81.2472 380.671 81.2472H256.529C255.7 81.2472 255.029 81.9188 255.029 82.7472V141.941C255.029 142.769 255.7 143.441 256.529 143.441H287.881H288.081L288.226 143.579L306.407 160.933L303.188 144.034Z" stroke="white"></path><mask id="path-18-inside-9_3_518" fill="white"><rect width="107.078" height="7.02149" rx="0.5" transform="matrix(-1 0 0 1 372.139 93.0348)"></rect></mask><rect width="107.078" height="7.02149" rx="0.5" transform="matrix(-1 0 0 1 372.139 93.0348)" stroke="white" stroke-width="2" mask="url(#path-18-inside-9_3_518)"></rect><mask id="path-19-inside-10_3_518" fill="white"><rect width="107.078" height="7.02149" rx="0.5" transform="matrix(-1 0 0 1 372.138 108.833)"></rect></mask><rect width="107.078" height="7.02149" rx="0.5" transform="matrix(-1 0 0 1 372.138 108.833)" stroke="white" stroke-width="2" mask="url(#path-19-inside-10_3_518)"></rect><mask id="path-20-inside-11_3_518" fill="white"><rect width="107.078" height="7.02149" rx="0.5" transform="matrix(-1 0 0 1 372.138 124.631)"></rect></mask><rect width="107.078" height="7.02149" rx="0.5" transform="matrix(-1 0 0 1 372.138 124.631)" stroke="white" stroke-width="2" mask="url(#path-20-inside-11_3_518)"></rect><path d="M63.1931 150.523H103.786V187.935H63.1931V150.523Z" fill="white"></path><path fill-rule="evenodd" clip-rule="evenodd" d="M126.83 174.114V138.385L105.18 151.166V174.178H126.712L126.83 174.114ZM128.142 174.751L103.868 187.935V151.249H63.1931L85.4988 136.919H128.142V174.751ZM125.028 138.065H85.9292L67.1925 150.103H104.638L125.028 138.065ZM105.18 175.324V185.872L124.601 175.324H105.18Z" fill="white"></path><path d="M469.562 177.513C472.371 220.344 432.992 226.371 413.39 224.908C460.785 337.252 565.23 281.08 565.23 265.281C520.994 251.941 514.324 199.748 517.835 174.88C509.35 175.757 487.818 177.513 469.562 177.513Z" fill="#FCCBBB"></path><path d="M517.835 174.88C509.35 175.757 487.818 177.513 469.562 177.513C470.575 192.958 466.102 203.617 459.048 210.865C475.426 209.402 510.111 200.157 517.835 174.88Z" fill="#EE987C"></path><path d="M416.388 231.634C415.366 229.462 414.366 227.221 413.39 224.908C424.285 225.721 441.289 224.22 453.763 215.372C464.269 222.573 492.659 233.64 522.182 220.299C528.497 239.669 541.423 258.102 565.23 265.281C579.273 265.281 603.848 265.281 632.811 270.548C623.742 327.89 607.534 449.947 615.258 479.437C618.103 490.299 620.871 498.322 623.362 505.539C629.323 522.814 632.811 530.641 632.811 566.546C531.585 566.546 430.359 566.546 329.132 566.546C338.23 563.913 364.668 508.752 369.549 468.027C371.863 448.718 369.549 417.999 344.053 391.668C349.662 381.251 355.226 371.285 360.655 361.56C384.182 319.42 405.181 281.806 416.388 231.634Z" fill="#CA5230"></path><path d="M632.811 270.548C623.742 327.89 607.534 449.947 615.257 479.437C624.387 514.296 632.732 519.918 633.612 563.474C604.089 563.474 536.793 547.325 496.77 486.238C501.158 480.972 503.792 476.291 506.425 473.073L481.849 455.519C469.269 466.636 442.353 466.051 436.209 440.598C427.432 408.124 459.907 433.577 481.849 398.469C492.381 400.225 497.647 413.098 500.28 415.146C520.174 416.316 565.756 419.183 574.884 428.311C572.251 410.757 552.942 331.125 613.502 281.737C619.646 276.727 626.667 273.838 632.811 270.548Z" fill="#A33618"></path><path d="M432.774 277.736C444.908 264.135 445.891 264.771 435.722 279.641C429 289.329 429.983 289.965 438.671 281.547C447.427 273.174 448.409 273.809 441.619 283.453C428.606 302.319 429.589 302.954 444.568 285.358C459.361 267.643 460.344 268.278 447.516 287.264C438.449 300.56 439.432 301.195 450.465 289.17C461.557 277.182 462.54 277.817 453.414 291.075C448.55 297.944 449.533 298.579 456.362 292.981C463.285 287.443 464.268 288.078 459.311 294.886C445.582 314.472 446.565 315.108 462.259 296.792" stroke="white" stroke-opacity="0.76" stroke-width="0.5"></path><path d="M350.271 361.994C362.405 348.393 363.388 349.028 353.22 363.899C346.498 373.587 347.481 374.222 356.168 365.805C364.924 357.431 365.907 358.067 359.117 367.711C346.104 386.577 347.087 387.212 362.066 369.616C376.859 351.901 377.842 352.536 365.014 371.522C355.947 384.818 356.929 385.453 367.963 373.427C379.054 361.439 380.037 362.075 370.911 375.333C366.048 382.202 367.031 382.837 373.86 377.239C380.783 371.701 381.766 372.336 376.808 379.144C363.079 398.73 364.062 399.365 379.757 381.05" stroke="white" stroke-opacity="0.76" stroke-width="0.5"></path><path d="M531.075 254.916C543.209 241.315 544.191 241.951 534.023 256.822C527.301 266.509 528.284 267.145 536.972 258.727C545.728 250.354 546.71 250.989 539.92 260.633C526.907 279.499 527.89 280.134 542.869 262.538C557.662 244.823 558.645 245.458 545.817 264.444C536.75 277.74 537.733 278.375 548.766 266.35C559.858 254.362 560.841 254.997 551.714 268.255C546.851 275.124 547.834 275.759 554.663 270.161C561.586 264.623 562.569 265.258 557.612 272.066C543.883 291.652 544.865 292.288 560.56 273.972" stroke="white" stroke-opacity="0.76" stroke-width="0.5"></path><path d="M506.499 347.951C518.633 334.35 519.616 334.985 509.448 349.856C502.726 359.544 503.709 360.179 512.396 351.762C521.152 343.388 522.135 344.024 515.345 353.668C502.332 372.534 503.315 373.169 518.294 355.573C533.087 337.858 534.07 338.493 521.242 357.479C512.175 370.775 513.157 371.41 524.191 359.384C535.282 347.396 536.265 348.032 527.139 361.29C522.276 368.159 523.259 368.794 530.088 363.196C537.011 357.658 537.994 358.293 533.036 365.101C519.307 384.687 520.29 385.322 535.985 367.007" stroke="white" stroke-opacity="0.76" stroke-width="0.5"></path><path d="M376.602 516.466C388.736 502.866 389.719 503.501 379.551 518.372C372.828 528.06 373.811 528.695 382.499 520.278C391.255 511.904 392.238 512.539 385.448 522.183C372.434 541.049 373.417 541.684 388.396 524.089C403.19 506.373 404.173 507.009 391.345 525.994C382.277 539.291 383.26 539.926 394.293 527.9C405.385 515.912 406.368 516.547 397.242 529.806C392.378 536.674 393.361 537.309 400.19 531.711C407.113 526.174 408.096 526.809 403.139 533.617C389.41 553.203 390.393 553.838 406.088 535.522" stroke="white" stroke-opacity="0.76" stroke-width="0.5"></path><path d="M469.637 493.647C481.771 480.046 482.754 480.681 472.585 495.552C465.863 505.24 466.846 505.875 475.534 497.458C484.29 489.084 485.272 489.719 478.482 499.363C465.469 518.229 466.452 518.865 481.431 501.269C496.224 483.554 497.207 484.189 484.379 503.175C475.312 516.471 476.295 517.106 487.328 505.08C498.42 493.092 499.403 493.727 490.277 506.986C485.413 513.854 486.396 514.49 493.225 508.891C500.148 503.354 501.131 503.989 496.174 510.797C482.445 530.383 483.428 531.018 499.122 512.703" stroke="white" stroke-opacity="0.76" stroke-width="0.5"></path><path d="M446.817 384.814C458.951 371.213 459.934 371.848 449.766 386.719C443.043 396.407 444.026 397.042 452.714 388.625C461.47 380.251 462.453 380.886 455.663 390.53C442.649 409.396 443.632 410.032 458.611 392.436C473.405 374.721 474.387 375.356 461.56 394.342C452.492 407.638 453.475 408.273 464.508 396.247C475.6 384.259 476.583 384.894 467.457 398.153C462.593 405.021 463.576 405.657 470.405 400.058C477.328 394.521 478.311 395.156 473.354 401.964C459.625 421.55 460.608 422.185 476.303 403.87" stroke="white" stroke-width="0.5"></path><path d="M416.388 231.634C415.366 229.462 414.366 227.221 413.39 224.908C424.285 225.721 441.289 224.22 453.764 215.372C449.551 224.07 427.091 229.837 416.388 231.634Z" fill="#A33618"></path><path d="M522.182 220.299C528.497 239.669 541.423 258.102 565.23 265.281H565.232C579.275 265.281 603.849 265.282 632.812 270.548C631.978 275.819 631.109 283.393 630.178 289.636C576.64 260.673 552.064 294.025 515.202 223.022C517.516 222.258 519.846 221.355 522.182 220.299Z" fill="#A33618"></path><path d="M417.778 225.095C404.592 290.416 375.012 334.172 344.053 391.668C369.549 417.999 371.863 448.718 369.549 468.027C369.084 471.904 368.416 475.948 367.58 480.094C380.915 474.828 395.836 459.908 397.591 448.498C442.353 452.886 443.231 392.326 424.8 407.246C406.368 422.167 394.958 408.124 394.958 404.613C394.958 386.182 388.815 388.815 382.671 399.347C380.33 397.884 364.239 388.815 351.952 388.815C381.793 351.952 427.433 265.061 417.778 225.095Z" fill="#A33618"></path><path d="M443.231 220.899C446.925 219.5 450.499 217.688 453.763 215.372C459.41 219.243 470.225 224.231 483.605 225.944C495.117 227.418 508.528 226.469 522.182 220.299C524.258 226.666 527.048 232.932 530.704 238.731C506.595 249.789 489.259 234.814 483.605 225.944C460.434 243.099 447.035 229.728 443.231 220.899Z" fill="white"></path><path d="M443.231 220.899C447.035 229.729 460.434 243.099 483.605 225.944C489.259 234.814 506.595 249.789 530.704 238.731" stroke="black"></path><path d="M438.613 403.692L453.732 386.642L467.585 398.926C470.233 401.274 470.476 405.325 468.128 407.973L461.513 415.432C459.165 418.081 455.114 418.324 452.466 415.976L438.613 403.692Z" fill="#001F52"></path><path fill-rule="evenodd" clip-rule="evenodd" d="M457.979 405.706C454.819 408.781 450.959 411.212 448.364 412.514L448.044 411.877C450.59 410.601 454.386 408.209 457.482 405.196C460.591 402.17 462.92 398.59 462.701 394.931L463.412 394.888C463.651 398.87 461.125 402.643 457.979 405.706ZM458.835 408.295C455.738 411.185 452.228 413.081 449.928 413.946L449.677 413.28C451.899 412.444 455.327 410.595 458.349 407.774C461.369 404.955 463.961 401.189 464.568 396.517L465.274 396.609C464.639 401.496 461.932 405.404 458.835 408.295ZM460.344 410.041C457.256 412.888 453.783 414.632 451.511 415.369L451.291 414.692C453.472 413.984 456.854 412.29 459.861 409.517C462.864 406.747 465.477 402.917 466.167 397.932L466.872 398.029C466.154 403.218 463.435 407.19 460.344 410.041Z" fill="white"></path><path d="M452.218 359.339C465.018 370.689 466.194 390.267 454.843 403.068C443.493 415.868 423.915 417.043 411.114 405.693C398.314 394.342 397.139 374.764 408.489 361.964C419.839 349.164 439.418 347.988 452.218 359.339Z" fill="white"></path><path d="M452.218 359.339C439.418 347.988 419.84 349.164 408.489 361.964C416.647 359.204 434.37 368.734 433.149 386.21C432.172 400.192 449.338 400.407 458.044 398.767C465.812 386.192 463.656 369.481 452.218 359.339Z" fill="#FFD4C8"></path><path fill-rule="evenodd" clip-rule="evenodd" d="M414.666 376.764C415.378 375.749 416.672 375.086 418.578 374.874C420.11 374.704 421.415 374.905 422.512 375.429C423.609 375.954 424.473 376.79 425.138 377.851C426.462 379.96 427.018 382.979 427.099 386.327C427.129 387.532 427.097 388.786 427.015 390.065C428.435 390.283 429.874 390.243 431.271 389.867C434.631 388.963 437.852 386.091 440.017 379.954C438.671 379.903 437.439 379.451 436.364 378.765C434.494 377.571 433.098 375.669 432.365 373.936C431.998 373.07 431.787 372.224 431.777 371.511C431.767 370.812 431.952 370.15 432.491 369.798C434.203 368.678 436.73 369.043 438.591 370.693C440.426 372.32 441.632 375.19 440.968 379.206C441.605 379.132 442.266 378.957 442.947 378.66C445.336 377.62 448.025 375.069 450.796 370.078L451.418 370.424C448.613 375.478 445.825 378.183 443.231 379.313C442.384 379.682 441.563 379.88 440.776 379.94C438.561 386.389 435.161 389.558 431.456 390.555C429.97 390.954 428.452 391 426.964 390.778C426.527 396.421 425.173 402.455 423.875 406.814L423.193 406.611C424.489 402.257 425.834 396.243 426.26 390.653C424.236 390.236 422.285 389.342 420.567 388.196C417.403 386.083 414.946 383.057 414.235 380.402C413.878 379.068 413.952 377.781 414.666 376.764ZM426.31 389.935C426.386 388.706 426.416 387.501 426.387 386.345C426.307 383.038 425.756 380.175 424.535 378.229C423.929 377.263 423.161 376.528 422.205 376.072C421.249 375.615 420.081 375.424 418.656 375.582C416.866 375.781 415.801 376.387 415.248 377.174C414.697 377.96 414.599 379.008 414.923 380.218C415.574 382.652 417.887 385.55 420.963 387.603C422.6 388.696 424.429 389.533 426.31 389.935ZM440.239 379.246C440.928 375.347 439.763 372.684 438.119 371.226C436.432 369.73 434.257 369.494 432.88 370.394C432.647 370.547 432.48 370.895 432.489 371.501C432.497 372.093 432.676 372.846 433.02 373.658C433.708 375.283 435.02 377.061 436.747 378.165C437.777 378.822 438.952 379.24 440.239 379.246Z" fill="#F06F4B"></path><path d="M496.767 419.754C525.731 419.754 563.473 428.31 579.272 434.454C582.491 460.934 592.965 498.705 556.452 509.058C523.499 475.969 485.367 453.861 482.724 453.106C476.58 451.351 473.165 459.77 466.926 459.25C435.33 456.617 433.576 426.775 441.473 423.265C482.724 436.43 480.969 402.2 483.602 402.2C486.235 402.2 494.134 410.977 496.767 419.754Z" fill="#FCCBBB"></path><path d="M556.453 509.058C523.5 475.969 485.368 453.861 482.725 453.106C480.013 452.331 477.832 453.539 475.706 455.086C480.094 438.843 501.159 459.907 509.058 459.907C516.957 459.907 534.413 423.265 534.413 423.265C552.812 426.317 569.902 430.81 579.273 434.454C582.492 460.934 592.966 498.705 556.453 509.058Z" fill="#EE987C"></path><path d="M578.393 432.042C574.18 317.591 612.915 276.691 632.809 270.547C693.369 310.921 704.781 508.18 681.084 545.92C657.386 583.661 550.33 538.359 508.895 486.458L540.355 423.265C556.041 425.6 570.111 428.821 578.393 432.042Z" fill="#CA5230"></path><path d="M540.355 423.265L508.895 486.458C511.191 489.335 513.69 492.192 516.365 495.015C521.243 492.967 530.473 485.711 528.367 473.073C540.355 468.684 541.811 457.274 540.355 451.131C547.676 446.742 554.697 437.395 552.942 425.393C548.93 424.628 544.705 423.912 540.355 423.265Z" fill="white"></path><path d="M508.895 486.458C511.191 489.335 513.69 492.192 516.365 495.015C521.243 492.967 530.473 485.711 528.367 473.073C540.355 468.684 541.811 457.274 540.355 451.131C547.676 446.742 554.697 437.395 552.942 425.393C548.93 424.628 544.705 423.912 540.355 423.265" stroke="black"></path><path d="M615.258 282.343C621.643 275.816 627.819 272.088 632.809 270.547C684.151 304.775 700.168 451.76 689.416 518.712C696.081 411.986 642.754 316.664 615.258 282.343Z" fill="#A33618"></path><path d="M615.333 295.289C627.467 281.689 628.45 282.324 618.281 297.195C611.559 306.883 612.542 307.518 621.23 299.101C629.986 290.727 630.969 291.362 624.178 301.006C611.165 319.872 612.148 320.507 627.127 302.912C641.92 285.196 642.903 285.832 630.076 304.818C621.008 318.114 621.991 318.749 633.024 306.723C644.116 294.735 645.099 295.37 635.973 308.629C631.109 315.497 632.092 316.133 638.921 310.534C645.844 304.997 646.827 305.632 641.87 312.44C628.141 332.026 629.124 332.661 644.818 314.346" stroke="white" stroke-opacity="0.76" stroke-width="0.5"></path><path d="M626.422 531.691C613.634 518.704 614.331 517.764 628.514 528.872C637.748 536.206 638.445 535.266 630.606 526.053C622.816 516.774 623.513 515.834 632.698 523.233C650.685 537.438 651.382 536.498 634.79 520.414C618.067 504.507 618.765 503.568 636.882 517.595C649.565 527.502 650.263 526.562 638.975 514.775C627.728 502.932 628.425 501.993 641.067 511.956C647.607 517.253 648.304 516.313 643.159 509.137C638.08 501.87 638.777 500.931 645.251 506.317C663.909 521.282 664.606 520.343 647.343 503.498" stroke="white" stroke-opacity="0.76" stroke-width="0.5"></path><path d="M652.723 424.022C637.695 434.334 636.892 433.483 650.314 421.468C659.154 413.663 658.351 412.812 647.906 418.914C637.405 424.956 636.602 424.105 645.497 416.359C662.636 401.143 661.833 400.292 643.088 413.805C624.495 427.48 623.692 426.628 640.68 411.251C652.658 400.503 651.855 399.651 638.271 408.697C624.639 417.693 623.836 416.841 635.862 406.143C642.224 400.633 641.421 399.782 633.453 403.589C625.409 407.315 624.606 406.464 631.045 401.035C649.05 385.29 648.247 384.439 628.636 398.481" stroke="white" stroke-opacity="0.76" stroke-width="0.5"></path><path d="M559.718 473.764C546.93 460.777 547.627 459.837 561.81 470.945C571.044 478.278 571.741 477.339 563.902 468.125C556.112 458.847 556.809 457.907 565.994 465.306C583.981 479.51 584.678 478.571 568.086 462.487C551.363 446.58 552.061 445.64 570.179 459.667C582.861 469.575 583.559 468.635 572.271 456.848C561.024 445.005 561.721 444.065 574.363 454.029C580.903 459.325 581.6 458.386 576.455 451.209C571.376 443.943 572.073 443.003 578.547 448.39C597.205 463.355 597.902 462.415 580.639 445.571" stroke="white" stroke-opacity="0.76" stroke-width="0.5"></path><path d="M428.31 415.366C427.177 442.574 414.268 446.962 395.836 444.329C392.3 447.865 385.693 454.116 377.405 461.334C345.106 447.73 351.659 411.008 358.973 394.348C367.645 396.971 376.523 400.883 383.549 403.078C388.815 396.056 391.448 389.913 391.448 400.445C391.448 432.042 428.457 411.855 428.31 415.366Z" fill="#FCCBBB"></path><path d="M428.31 415.366C427.177 442.574 414.268 446.962 395.836 444.329C392.3 447.865 385.693 454.116 377.405 461.334C345.106 447.73 351.659 411.008 358.973 394.348C364.776 396.104 370.672 398.436 376.043 400.445C374.449 409.405 375.474 428.75 388.815 442.354C393.203 441.476 426.227 448.938 425.074 415.366C427.104 414.876 428.337 414.719 428.31 415.366Z" fill="#EE987C"></path><path d="M417.778 225.095C404.592 290.416 375.012 334.172 344.053 391.668C352.043 391.668 361.592 395.008 370.383 398.31C369.506 411.912 371.612 441.83 387.059 452.693C358.973 486.238 265.061 533.07 265.061 446.962C265.061 389.689 322.111 246.63 417.778 225.095Z" fill="#CA5230"></path><path d="M387.059 452.693C358.973 486.238 265.061 533.07 265.061 446.962C274.44 477.608 310.309 519.766 378.748 443.231C380.955 447.047 383.69 450.323 387.059 452.693Z" fill="#A33618"></path><path d="M387.059 452.693C371.612 441.83 369.506 411.912 370.383 398.31C366.942 397.018 363.385 395.72 359.851 394.618C356.34 399.413 351.425 411.108 359.851 419.534C355.463 429.189 354.585 438.843 366.873 444.987C365.995 452.886 366.225 459.03 375.326 464.296C379.917 460.399 383.904 456.462 387.059 452.693Z" fill="white"></path><path d="M370.383 398.31C366.942 397.018 363.385 395.72 359.851 394.618C356.34 399.413 351.425 411.108 359.851 419.534C355.463 429.189 354.585 438.843 366.873 444.987C365.995 452.886 366.225 459.03 375.326 464.296C379.917 460.399 383.904 456.462 387.059 452.693" stroke="black"></path><path d="M357.293 270.714C369.427 257.114 370.41 257.749 360.241 272.62C353.519 282.308 354.502 282.943 363.19 274.525C371.946 266.152 372.929 266.787 366.139 276.431C353.125 295.297 354.108 295.932 369.087 278.337C383.88 260.621 384.863 261.256 372.036 280.242C362.968 293.539 363.951 294.174 374.984 282.148C386.076 270.16 387.059 270.795 377.933 284.054C373.069 290.922 374.052 291.557 380.881 285.959C387.804 280.422 388.787 281.057 383.83 287.865C370.101 307.451 371.084 308.086 386.778 289.77" stroke="white" stroke-opacity="0.76" stroke-width="0.5"></path><path d="M290.589 444.496C302.723 430.896 303.706 431.531 293.537 446.402C286.815 456.09 287.798 456.725 296.486 448.307C305.242 439.934 306.225 440.569 299.434 450.213C286.421 469.079 287.404 469.714 302.383 452.119C317.176 434.403 318.159 435.038 305.332 454.024C296.264 467.32 297.247 467.956 308.28 455.93C319.372 443.942 320.355 444.577 311.229 457.835C306.365 464.704 307.348 465.339 314.177 459.741C321.1 454.203 322.083 454.839 317.126 461.647C303.397 481.233 304.38 481.868 320.074 463.552" stroke="white" stroke-opacity="0.76" stroke-width="0.5"></path><path d="M308.511 371.376C316.726 362.168 317.392 362.598 310.507 372.667C305.956 379.226 306.621 379.656 312.503 373.957C318.432 368.287 319.097 368.718 314.5 375.247C305.689 388.02 306.355 388.45 316.496 376.537C326.512 364.543 327.177 364.973 318.492 377.827C312.353 386.829 313.019 387.259 320.489 379.117C327.998 371.001 328.664 371.431 322.485 380.408C319.192 385.058 319.858 385.488 324.481 381.698C329.168 377.949 329.834 378.379 326.478 382.988C317.182 396.249 317.848 396.679 328.474 384.278" stroke="white" stroke-opacity="0.76" stroke-width="0.5"></path><path d="M469.562 177.513C472.37 220.344 432.992 226.371 413.39 224.908C409.587 220.812 406.895 209.109 426.555 195.066C431.821 189.8 442.353 180.146 433.577 134.506C424.8 88.8664 443.231 83.6002 449.375 81.8449C449.375 74.8234 486.238 38.8384 517.834 43.8842C549.431 48.9301 570.496 94.7901 588.049 134.506C605.603 174.222 737.256 221.177 674.94 348.441C631.934 292.269 650.365 256.504 565.23 265.281C520.994 251.94 514.324 199.747 517.834 174.88C509.35 175.757 487.818 177.513 469.562 177.513Z" fill="#001F52"></path><path d="M469.562 177.513C472.371 220.344 432.992 226.371 413.39 224.908C431.236 215.253 464.471 188.572 454.641 159.081C487.642 159.081 510.521 154.986 517.835 152.938C527.489 182.779 560.49 241.233 615.258 236.318C670.025 231.403 685.657 267.037 686.627 285.468C688.236 303.304 681.399 330.139 677.573 352.83C634.567 296.658 642.466 274.716 565.23 265.281C520.994 251.94 514.324 199.747 517.835 174.88C509.35 175.757 487.818 177.513 469.562 177.513Z" fill="#00112C"></path><path d="M459.908 95.8881C452.886 110.809 424.8 213.498 517.834 174.88C517.835 86.2334 474.828 86.2335 459.908 95.8881Z" fill="#FCCBBB"></path><path d="M459.907 95.8881C474.827 86.2335 517.834 86.2334 517.834 174.88C509.408 109.054 475.705 94.7912 459.907 95.8881Z" fill="#EE987C"></path><path d="M2.5 36.5321C2.5 19.1717 16.546 5.08383 33.9062 5.03216L850.614 2.60148C868.047 2.5496 882.207 16.6678 882.207 34.1013V534.842C882.207 552.202 868.161 566.29 850.801 566.341L34.0937 568.772C16.6602 568.824 2.5 554.706 2.5 537.272V36.5321Z" stroke="#475393" stroke-width="5"></path></svg>