<svg xmlns="http://www.w3.org/2000/svg" width="299" height="308" viewBox="0 0 299 308" fill="none"><path d="M117.951 2.46545C118.242 2.73952 118.619 2.89127 119.011 2.89127C119.402 2.89127 119.78 2.73952 120.071 2.46545C125.063 4.34052 130.452 1.79047 135.408 3.96555L135.732 4.2655L136.091 4.04053C138.605 5.39058 141.623 3.74054 144.137 5.4281L144.496 5.8031L144.999 5.57809C146.975 6.77814 149.453 5.39057 151.393 6.92813L151.716 7.30319L152.147 7.11566C153.728 7.94069 155.739 7.11564 157.212 8.39069L157.571 8.80322L158.038 8.61569C159.583 9.51573 161.63 8.61572 162.959 10.0408C164.216 11.3533 166.192 10.0408 167.413 11.5033L167.665 11.8408H168.096C169.361 12.0427 170.579 12.4877 171.688 13.1534C172.801 14.5784 174.885 13.1533 175.962 14.7659C177.076 16.1159 179.303 14.7659 180.165 16.5285C181.207 16.941 182.464 16.791 183.218 17.916C183.973 19.0411 185.409 18.3286 186.164 19.3411C186.99 20.1286 188.319 19.8661 189.073 20.8036C189.863 21.6287 191.228 21.3287 191.947 22.3412C192.773 23.1287 194.138 22.8287 194.785 23.9537C195.431 25.0788 197.048 24.2538 197.515 25.6414C198.341 25.6414 198.736 26.2788 199.239 26.7663C199.921 27.6664 201.394 27.2914 201.897 28.4914C202.48 28.7872 203.014 29.1798 203.477 29.654C204.052 30.629 205.561 30.179 205.956 31.454C206.746 31.454 207.141 32.1666 207.536 32.7291L209.009 34.0041H209.224C209.727 35.0167 211.416 34.4917 211.595 35.9542C212.493 35.9542 212.924 36.4792 213.176 37.3043C213.52 37.3937 213.838 37.5706 214.101 37.8192C214.364 38.0678 214.565 38.3804 214.684 38.7293C215.349 38.996 215.889 39.5198 216.193 40.1918C216.814 40.5312 217.325 41.0527 217.666 41.6919C218.295 42.0228 218.801 42.564 219.103 43.2294C219.423 43.3737 219.713 43.5843 219.954 43.8485C220.194 44.1128 220.381 44.4252 220.503 44.767C220.853 44.8747 221.167 45.0831 221.408 45.3683C221.649 45.6536 221.809 46.0041 221.868 46.3796C222.224 46.462 222.544 46.6647 222.778 46.9564C223.011 47.248 223.146 47.6121 223.162 47.9921L223.485 47.7296L223.197 48.0297C224.526 48.2172 224.024 49.9047 224.993 50.3922L225.209 50.7297L226.358 52.1923C226.92 52.6036 227.337 53.1967 227.544 53.8799C228.765 54.3299 228.334 55.8674 229.196 56.5424V56.7675C229.719 57.179 230.098 57.7588 230.274 58.4175C231.567 58.905 231.172 60.3676 231.818 61.2301C232.896 61.9051 232.609 63.2927 233.255 64.1927C234.333 65.0553 234.189 66.4428 234.656 67.5679C234.594 67.6574 234.553 67.7608 234.536 67.8698C234.519 67.9787 234.526 68.0904 234.558 68.1958C234.589 68.3013 234.643 68.3977 234.717 68.4775C234.79 68.5572 234.88 68.6181 234.979 68.6554C235.734 69.5554 235.518 70.868 236.129 71.8805C236.065 71.9881 236.022 72.1081 236.004 72.2333C235.985 72.3585 235.991 72.4862 236.022 72.6089C236.052 72.7316 236.106 72.8466 236.18 72.947C236.254 73.0474 236.346 73.1311 236.452 73.1931C237.53 74.5056 236.452 76.4182 237.637 77.7307L237.853 79.2683C238.805 85.7808 238.805 92.4065 237.853 98.919L237.494 101.544C236.596 103.082 237.494 105.069 236.272 106.532L235.841 106.907L236.057 107.432C235.856 108.674 235.443 109.868 234.836 110.957V111.294C234.081 112.044 234.189 113.207 233.65 114.07C233.544 114.121 233.45 114.195 233.372 114.286C233.294 114.377 233.235 114.484 233.198 114.6C233.161 114.716 233.147 114.838 233.157 114.96C233.167 115.081 233.2 115.199 233.255 115.307C232.716 117.032 231.998 118.757 233.255 120.482C234.009 120.482 234.405 121.195 234.943 121.645C235.554 122.582 237.063 122.17 237.53 123.407C238.137 123.679 238.686 124.075 239.146 124.57C239.757 125.507 241.265 125.095 241.66 126.37C242.016 126.422 242.353 126.566 242.641 126.789C242.93 127.011 243.161 127.306 243.313 127.645L244.821 128.92H245.037C245.54 129.895 247.192 129.408 247.408 130.833C247.781 130.823 248.146 130.948 248.44 131.188C248.735 131.427 248.941 131.765 249.024 132.145C249.681 132.401 250.228 132.893 250.569 133.533C251.081 133.943 251.561 134.394 252.005 134.883C256.275 138.062 260.075 141.878 263.284 146.208L263.536 146.508C263.842 147.002 264.232 147.434 264.685 147.783L264.901 148.046L266.122 149.471C266.627 149.924 267.064 150.455 267.415 151.046C268.098 151.421 268.672 151.833 268.672 152.696V152.797L268.708 152.921C269.5 154 269.463 154.834 270.468 155.359L270.684 155.734L271.833 157.196C272.393 157.594 272.81 158.174 273.019 158.846C274.276 159.259 273.809 160.834 274.707 161.471V161.696C275.216 162.13 275.601 162.7 275.821 163.346C277.006 163.796 276.611 165.334 277.437 166.046C277.772 166.277 278.054 166.581 278.265 166.937C278.476 167.294 278.61 167.693 278.658 168.109V168.672L279.125 169.009C279.534 169.514 279.883 170.068 280.167 170.659C281.352 171.259 280.993 172.684 281.676 173.547C282.717 174.222 282.43 175.609 283.112 176.509C284.19 177.297 283.974 178.684 284.513 179.734C284.458 179.842 284.425 179.96 284.415 180.082C284.405 180.204 284.42 180.326 284.456 180.442C284.493 180.557 284.553 180.664 284.63 180.755C284.708 180.846 284.803 180.92 284.908 180.972C285.447 181.835 285.339 182.997 286.094 183.747V184.085C286.884 184.985 286.776 186.26 287.279 187.31C287.216 187.411 287.175 187.526 287.157 187.645C287.139 187.765 287.146 187.887 287.177 188.004C287.207 188.12 287.261 188.229 287.334 188.323C287.407 188.416 287.499 188.493 287.602 188.547C288.321 189.522 288.177 190.797 288.752 191.81C288.681 191.91 288.633 192.026 288.609 192.147C288.585 192.269 288.587 192.395 288.615 192.516C288.642 192.638 288.694 192.751 288.767 192.849C288.841 192.947 288.933 193.028 289.039 193.085C290.189 194.322 289.039 196.273 290.296 197.51L290.584 199.16C291.589 200.51 290.584 202.385 291.697 203.66L291.985 205.235C292.954 206.81 292.308 208.761 293.134 210.373C292.975 210.77 292.917 211.204 292.968 211.632C293.018 212.059 293.174 212.466 293.421 212.811C294.643 214.761 293.421 217.198 294.571 219.148C294.429 219.606 294.381 220.09 294.43 220.568C294.48 221.046 294.626 221.508 294.858 221.924C296.331 224.886 294.571 228.261 296.044 231.186C295.882 231.656 295.817 232.157 295.854 232.654C295.891 233.152 296.029 233.636 296.259 234.074C297.247 244.637 297.247 255.275 296.259 265.838C295.714 267.201 295.588 268.709 295.9 270.15C294.571 272.588 296.223 275.588 294.679 278.026C294.574 278.08 294.484 278.16 294.414 278.257C294.344 278.355 294.296 278.468 294.275 278.588C294.254 278.708 294.261 278.832 294.293 278.949C294.326 279.066 294.384 279.173 294.463 279.263C293.493 280.726 294.463 282.676 293.242 284.063C293.141 284.116 293.052 284.191 292.983 284.284C292.913 284.377 292.865 284.485 292.84 284.6C292.816 284.716 292.817 284.835 292.843 284.95C292.869 285.064 292.919 285.172 292.99 285.263C292.487 286.313 292.559 287.588 291.913 288.601C291.704 288.74 291.552 288.955 291.486 289.204C291.42 289.453 291.444 289.719 291.554 289.951C290.979 290.926 291.158 292.201 290.332 293.101V293.439C289.542 294.189 289.65 295.351 289.111 296.214C289.004 296.247 288.907 296.306 288.826 296.386C288.745 296.466 288.683 296.564 288.645 296.673C288.606 296.782 288.593 296.899 288.605 297.015C288.618 297.13 288.655 297.241 288.716 297.339C288.177 298.389 288.5 299.889 287.171 300.526C286.972 301.155 286.626 301.721 286.166 302.176L285.986 302.551C285.016 303.151 285.447 304.614 284.441 305.177C280.023 307.052 278.55 305.739 280.598 301.089C282.007 298.107 283.603 295.226 285.375 292.464C289.681 279.465 291.82 265.791 291.697 252.037C291.293 239.07 290.093 226.143 288.105 213.336C286.836 208.897 285.852 204.374 285.16 199.798C283.543 195.335 282.43 190.685 280.885 186.222C278.443 181.197 276.18 176.097 273.701 171.222C272.325 170.099 271.371 168.505 271.007 166.721C269.583 165.693 268.562 164.161 268.134 162.409C266.589 161.434 266.086 159.596 265.08 158.171C264.511 157.773 264.062 157.214 263.787 156.559C263.458 156.434 263.167 156.218 262.945 155.934C262.724 155.65 262.58 155.308 262.53 154.946C257.645 149.921 252.903 144.783 247.982 139.946L247.659 140.246L247.946 139.946C247.587 139.9 247.248 139.75 246.968 139.51C246.688 139.271 246.479 138.954 246.366 138.595C244.22 137.417 242.287 135.856 240.655 133.983C239.9 133.983 239.505 133.27 239.038 132.708C238.356 131.883 236.775 132.333 236.524 130.87L236.236 131.32L236.488 130.833C235.626 130.833 235.195 130.308 234.764 129.67C234.009 128.845 232.465 129.295 232.142 127.833L231.89 128.283L232.106 127.833C231.001 127.425 229.786 127.493 228.729 128.02C228.441 128.614 228.051 129.147 227.58 129.595V129.895C226.646 130.458 227.113 132.07 225.856 132.408L225.496 131.208L225.173 131.02C225.173 131.92 224.598 132.333 223.916 132.67C223.563 133.271 223.113 133.804 222.587 134.245C222.196 134.758 221.776 135.247 221.33 135.708C219.876 138.081 217.954 140.101 215.69 141.633H215.51C215.079 142.083 214.613 142.496 214.146 142.946C213.744 143.502 213.244 143.973 212.673 144.333C212.534 144.675 212.318 144.977 212.042 145.212C211.767 145.447 211.441 145.609 211.092 145.683C210.122 147.333 208.326 147.858 206.962 148.946C206.53 149.546 206.099 150.146 205.309 150.183C204.914 151.496 203.405 151.121 202.723 151.946C202.256 152.508 201.861 153.146 201.035 153.108C200.64 154.534 199.167 154.196 198.341 154.834C197.514 155.471 196.329 155.659 195.539 156.484C194.82 157.459 193.456 157.159 192.701 158.021C191.947 158.959 190.618 158.696 189.792 159.484C189.001 160.421 187.78 160.271 186.81 160.834C185.805 162.559 183.685 161.171 182.536 162.521C181.386 163.946 179.375 162.521 178.154 164.021C176.717 165.371 174.561 164.546 173.197 165.409L172.73 165.221L172.37 165.596C170.143 167.359 167.27 165.596 165.186 166.984C160.028 168.39 154.611 168.39 149.453 166.984C147.298 165.334 144.245 167.659 142.269 165.296C141.228 164.921 140.042 164.959 139.144 164.096C138.21 162.559 135.84 164.096 135.193 162.146C133.425 161.771 131.845 160.746 130.739 159.259C129.949 159.259 129.554 158.509 129.122 157.946C126.671 156.6 124.695 154.471 123.483 151.871C121.034 148.788 119.357 145.117 118.605 141.189C117.852 137.261 118.047 133.2 119.173 129.37C120.214 128.058 119.173 126.032 120.573 124.907C121.22 124.007 120.933 122.657 121.938 121.945C122.657 121.157 122.226 119.62 123.555 119.207C123.609 118.852 123.74 118.515 123.94 118.222C124.139 117.93 124.401 117.689 124.704 117.52C126.413 114.393 128.894 111.803 131.888 110.019C132.283 109.344 132.714 108.744 133.541 108.707C133.9 107.357 135.444 107.807 136.127 106.907C137.437 105.682 138.997 104.784 140.689 104.282C141.443 102.257 143.742 103.832 144.784 102.444C145.933 100.982 147.945 102.219 149.13 100.907C150.818 99.2565 153.261 100.907 154.985 99.444C163.633 98.1501 172.415 98.1501 181.063 99.444L181.53 99.819L182.105 99.594C184.44 101.169 187.457 99.1065 189.72 101.132C191.48 102.632 193.994 100.794 195.647 102.707C196.976 103.832 198.915 102.707 200.137 104.094C201.322 105.444 203.334 104.094 204.483 105.594C205.632 106.982 207.716 105.594 208.758 107.244C209.691 107.882 210.949 107.732 211.811 108.557C212.781 110.057 215.044 108.557 215.87 110.394C216.875 110.844 218.169 110.657 218.851 111.819C219.785 112.382 221.114 112.157 221.761 113.32C222.407 114.482 224.024 113.657 224.634 114.857C228.945 116.732 229.232 112.532 230.848 110.319C231.818 109.044 230.525 106.944 232.285 105.969C233.471 104.169 231.782 101.619 233.722 100.007C235.736 86.7823 233.191 73.2409 226.538 61.7926V61.6051C225.113 60.5513 224.104 58.9915 223.7 57.2175C221.898 55.5561 220.39 53.5757 219.246 51.3673C218.642 51.0072 218.164 50.4554 217.881 49.7922C217.568 49.6421 217.286 49.4291 217.052 49.1653C216.818 48.9014 216.636 48.592 216.516 48.2547C216.178 48.1415 215.873 47.9413 215.628 47.6727C215.383 47.404 215.207 47.0754 215.115 46.7171C214.779 46.6237 214.473 46.4392 214.227 46.1824C213.981 45.9256 213.804 45.6055 213.714 45.2545C213.351 45.2148 213.009 45.0553 212.737 44.7991C212.466 44.5429 212.28 44.2033 212.206 43.8295C211.869 43.7257 211.557 43.5483 211.291 43.3091C211.024 43.0699 210.81 42.7743 210.661 42.442C208.54 41.2097 206.633 39.6122 205.022 37.7168C204.232 37.7168 203.836 37.0418 203.405 36.4792C201.904 35.5842 200.464 34.5818 199.095 33.4791C198.305 32.6916 196.796 33.1041 196.401 31.7166C194.709 31.1576 193.153 30.2238 191.839 28.979C191.049 28.1539 189.684 28.4539 189.001 27.4039C188.319 26.3539 186.81 26.9164 186.092 25.9038C185.373 24.8913 183.937 25.3788 183.146 24.4413C182.141 23.0162 179.842 24.6288 179.087 22.5662C177.974 22.3037 176.753 22.5662 175.962 21.2912C174.777 20.0536 172.622 21.2912 171.652 19.6036C170.323 18.7036 168.311 19.9036 167.306 18.0286C165.905 17.241 164.001 18.2911 162.852 16.641C161.487 15.591 159.547 16.641 158.29 15.2909L158.002 14.9534L157.607 15.141C155.955 14.3159 154.015 15.1409 152.471 13.7909L152.111 13.3784L151.644 13.6034C149.633 12.4409 147.118 13.7909 145.179 12.2159L144.855 11.8783L144.424 12.1034C141.479 10.6408 138.031 12.5533 135.157 10.6033C129.41 8.6907 123.303 11.4283 117.556 9.14072C114.232 8.25973 110.75 8.25973 107.427 9.14072C101.572 11.3533 95.3575 8.84074 89.4666 10.6408L88.9637 10.3783L88.4967 10.7908C85.7668 12.7033 82.4262 10.4533 79.6603 12.2533C77.5051 14.2034 74.5597 12.2533 72.4763 13.7909C70.7881 15.516 68.3096 13.7909 66.5854 15.2909C65.1845 16.716 62.9934 15.816 61.6643 16.716H61.1614L60.8022 17.1285C59.6169 18.4411 57.6413 17.1285 56.4918 18.6285C55.6298 19.4536 54.4444 19.4161 53.4027 19.7911C52.4688 21.7036 50.2776 20.2786 49.1282 21.5162C48.3379 22.6037 47.1167 22.4912 46.075 22.8662C45.2488 24.7788 42.9858 23.2412 41.9801 24.7038C41.1898 25.5663 39.8967 25.3038 39.0706 26.1288C38.3162 27.1039 36.9871 26.8414 36.161 27.6289C35.4426 28.6414 34.1135 28.3414 33.2874 29.1664C32.6049 30.1414 31.24 29.804 30.4856 30.704C29.111 31.8489 27.587 32.7834 25.9597 33.4791C25.4568 34.7167 23.9841 34.3416 23.2297 35.2042C22.7628 35.7667 22.3676 36.3667 21.5415 36.3292C21.1823 37.7167 19.6377 37.3042 18.9193 38.1292C18.4883 38.6918 18.0932 39.3668 17.267 39.3668C16.9437 40.6793 15.3992 40.2293 14.8244 41.2044C14.3575 41.6544 13.8546 42.0669 13.3517 42.4794C12.9856 43.0824 12.4622 43.5638 11.843 43.867C10.8026 44.8156 9.8189 45.8301 8.89758 46.9046C8.32286 47.8421 8.53839 49.1922 7.60446 49.9797C7.22936 50.6032 6.67665 51.0884 6.02396 51.3673C5.09003 52.4173 4.26387 52.7173 3.61731 51.1048C0.671854 48.6297 2.3242 46.1171 4.04837 44.2045C6.672 40.5953 9.89631 37.5085 13.5672 35.0916C13.9264 34.3791 14.3215 33.7416 15.2195 33.8166L14.9322 33.3666L15.2554 33.8166C15.5069 32.3541 17.0874 32.8041 17.7699 31.9416C18.2009 31.4165 18.596 30.779 19.3863 30.779C19.8173 29.4665 21.29 29.879 22.0085 29.0539C23.339 27.8443 24.8575 26.8805 26.4985 26.2039C27.0373 24.9663 28.4382 25.3038 29.3003 24.5913C30.1623 23.8788 31.3477 23.8037 32.1739 23.0162C32.8923 22.0037 34.2572 22.2662 35.0834 21.4787C35.8377 20.5037 37.1308 20.7287 37.9929 20.0161C38.855 19.3036 40.0404 19.1536 41.0102 18.5911C41.6927 17.4285 42.914 17.541 43.9916 17.241C44.8178 15.2535 47.0807 16.791 48.1584 15.4785C48.9845 14.4659 50.2058 14.5409 51.2834 14.2409C52.2173 12.2908 54.2289 13.5284 55.5579 12.6658C56.7792 10.8283 58.9344 11.9158 60.479 11.0158H60.8741L61.1614 10.6783C62.4546 9.32823 64.3943 10.3783 65.7233 9.32822C67.3757 7.37815 69.8901 9.32821 71.6861 7.79065C73.8413 5.57807 76.8227 7.79066 79.0856 6.21561C81.9592 4.11553 85.4794 6.21562 88.4608 4.64056L88.82 4.86554L89.1792 4.56552C94.1362 2.39044 99.5242 4.94056 104.517 3.06549C104.805 3.32921 105.176 3.47458 105.559 3.47458C105.942 3.47458 106.312 3.32921 106.6 3.06549C110.278 1.88935 114.178 1.68319 117.951 2.46545ZM178.477 104.582C174.885 104.057 171.293 103.982 167.701 103.719C159.433 103.564 151.228 105.252 143.634 108.669C137.582 111.341 132.271 115.557 128.189 120.932C126.113 123.426 124.573 126.355 123.673 129.522C122.772 132.689 122.532 136.021 122.967 139.293C123.403 142.565 124.504 145.702 126.198 148.492C127.892 151.283 130.138 153.663 132.786 155.471C140.361 161.113 149.643 163.686 158.9 162.709C171.372 161.627 183.483 157.799 194.435 151.477C205.387 145.155 214.933 136.484 222.443 126.033C223.032 125.226 223.56 124.373 224.024 123.482C224.163 123.278 224.261 123.046 224.311 122.801C224.361 122.556 224.363 122.302 224.316 122.056C224.268 121.81 224.174 121.577 224.037 121.371C223.9 121.165 223.725 120.99 223.521 120.857C222.504 120.178 221.448 119.565 220.36 119.02C207.284 111.762 193.121 106.88 178.477 104.582Z" fill="#82C18D" stroke="#82C18D" stroke-width="4"></path></svg>