<svg width="317" height="200" viewBox="0 0 317 200" fill="none" xmlns="http://www.w3.org/2000/svg">
<path opacity="0.5" d="M109.903 31.9014L160.808 93.3201L195.123 59.6875L142.065 0.0594283C141.976 -0.0176565 140.808 1.29278 140.725 1.3758L109.903 31.9014Z" fill="#C6C8D1" fill-opacity="0.25"/>
<path d="M317 199.804H270.957C264.665 199.804 257.763 198.226 253.168 195.926C250.423 194.616 247.863 192.949 245.554 190.969C234.158 183.841 192.324 130.593 192.324 130.593L141.508 183.005C99.4075 208.384 71.4732 194.965 71.4732 194.965C71.4732 194.965 57.7817 186.996 52.6704 181.001C45.3118 172.409 29.0943 157.609 29.0943 157.609C-3.17455 131.874 0.0926515 103.578 0.0926515 103.578C0.0926515 103.578 1.46832 68.8663 18.5871 54.9911C29.3193 46.3339 39.3809 36.8768 48.6857 26.701C70.7675 1.13849 98.6366 0.978384 98.6366 0.978384L141.923 0C142.29 0 141.982 0.154172 141.923 0.243116C137.505 4.98679 51.0931 90.3315 51.0931 90.3315C39.987 104.675 57.0227 117.726 57.0227 117.726L84.9452 145.649C95.1026 155.806 107.43 145.649 107.43 145.649C107.43 145.649 225.257 29.6065 239.761 16.1878C253.026 3.91354 315.547 3.49254 315.547 3.49254L226.123 95.7512L317 199.804Z" fill="white"/>
<path opacity="0.5" d="M192.283 130.653L211.257 153.998L244.961 117.329L226.123 95.7511C226.034 95.674 209.099 113.309 209.016 113.392L192.283 130.653Z" fill="#C6C8D1"/>
</svg>
